<svg xmlns="http://www.w3.org/2000/svg" xmlns:xlink="http://www.w3.org/1999/xlink" width="112" height="70" viewBox="0 0 112 70"><defs><linearGradient id="b" x1="50%" x2="50%" y1="0%" y2="100%"><stop offset="0%" stop-color="#FF785D"/><stop offset="100%" stop-color="#F23E43"/><stop offset="100%" stop-color="#FF785D"/></linearGradient><path id="a" d="M42.335411,16.3748874 C42.9323221,16.3063064 43.4095754,16.6018029 43.7671708,17.261377 C44.0752202,17.5785197 44.3335245,17.3813937 44.5420838,16.669999 C44.7506431,15.9586042 45.1907736,15.6843912 45.8624754,15.8473599 C46.6159533,16.0810713 46.7715327,16.6469832 46.3292137,17.5450954 C45.6657353,18.8922637 41.5596802,24.0118987 39.7739871,24.8991878 C39.6308015,24.9651037 39.5380463,25.1871925 39.4957214,25.5654541 C39.432234,26.1328465 39.1789919,28.7711724 39.7739871,30.6869102 C40.1706506,31.9640688 40.7732207,31.9226418 41.5816974,30.5626293 C41.9138124,29.8495315 41.3135433,28.8251844 41.9308653,27.9382506 C42.5481872,27.0513169 41.9391012,27.0513169 43.3320214,25.8720255 C44.2606349,25.0858312 44.7618433,25.4158847 44.8356466,26.8621861 C44.9452316,27.9002586 44.8473773,28.7465946 44.5420838,29.4011938 C44.2367903,30.0557931 43.3606998,31.4306411 41.9138124,33.5257378 C41.4724071,34.4537136 41.4724071,35.3422464 41.9138124,36.1913362 C42.5759203,37.4649709 43.587032,39.5019692 43.9722006,39.7092225 C44.3573691,39.9164757 45.3438109,39.9037722 45.4123384,39.2020605 C45.4808658,38.5003488 45.3382403,36.9862364 45.0869435,36.6562124 C44.8356466,36.3261885 44.7056655,35.5057037 44.8356466,35.2161 C44.9656277,34.9264962 46.0296603,34.6140617 46.3292137,35.0848899 C46.6287672,35.5557181 47.3739923,35.8872522 47.2283604,37.0531295 C47.0827285,38.2190068 47.0328582,40.8290829 46.5297339,41.7384921 C46.1943178,42.3447648 46.3158104,43.2582012 46.8942116,44.4788011 C48.1811721,46.9521002 49.0345675,48.2765192 49.4543977,48.4520582 C49.8742279,48.6275972 50.396304,48.5398277 51.020626,48.1887498 C51.7410339,46.9287069 52.017649,45.7446775 51.8504715,44.6366618 C51.683294,43.5286461 51.3444528,43.3610576 51.1186739,42.6284311 L50.4689578,41.4202833 C50.0105754,40.6718145 49.6077223,40.2551463 49.2603986,40.1702788 C48.7394131,40.0429775 48.2105579,38.588296 48.9573746,38.5291315 C49.7041913,38.4699671 50.6721528,38.2338423 51.1842077,39.2020605 C51.5255776,39.8475394 51.8497346,39.9842868 52.1566787,39.6123029 C52.4683387,38.617819 52.4683387,37.8497175 52.1566787,37.3079986 C51.8450188,36.7662796 50.5135228,35.3126049 48.1621908,32.9469745 C47.23847,32.3951875 46.7662642,31.8805634 46.7455733,31.4031021 C46.714537,30.6869102 46.0020283,29.5148145 47.3689522,28.9018494 C48.2802348,28.4932061 49.0945769,29.29163 49.8119784,31.2971213 C50.3853101,32.652159 50.9684567,33.265894 51.5614182,33.1383262 C52.1543797,33.0107584 52.4508605,32.7600942 52.4508605,32.3863336 C52.494777,31.4918784 52.2946473,30.8177353 51.8504715,30.3639043 C51.4062956,29.9100733 50.6751592,28.7428339 49.6570621,26.8621861 C48.9199129,25.8685905 48.581343,24.6094952 48.6413525,23.0849001 C48.7313666,20.7980075 49.2569501,19.6642887 49.6570621,19.553955 C50.0571741,19.4436213 50.7933801,18.9202025 51.5614182,19.9680173 C52.0734436,20.6665606 52.0053878,21.5280874 51.3572506,22.5525977 C50.7977128,23.7832657 50.7400318,24.6221394 51.1842077,25.0692189 C51.6283836,25.5162985 52.1286783,26.4726424 52.6850918,27.9382506 C52.8822151,28.3268764 52.7920957,28.34796 53.0945765,28.2297199 C53.3970573,28.1114799 53.482322,27.9429589 53.6244928,27.4025725 C53.7666635,26.8621861 53.6402005,26.0619265 53.2860997,25.3560688 C52.931999,24.6502111 53.2885441,23.7262037 53.4942464,23.486792 C53.6999487,23.2473803 54.0910985,22.8292315 55.103006,23.4412193 C55.777611,23.8492112 56.3029453,24.5804308 56.1149135,25.8720255 L55.5703191,28.2297199 C55.1688808,31.4407684 54.8082052,33.3860588 54.4882925,34.0655912 C54.0084234,35.0848899 53.9183209,37.2004188 54.6571796,37.6241642 C55.3960382,38.0479096 55.4056763,37.3079986 55.5703191,37.3079986 C55.7349618,37.3079986 57.0086,36.7191968 56.9495337,37.6241642 C56.8904675,38.5291315 56.4332346,40.0601227 55.7190458,41.1739424 C55.2429199,41.9164888 55.0375733,42.7063846 55.103006,43.5436297 C54.7288608,46.2734857 53.8448123,48.4732011 52.4508605,50.1427757 C52.1300046,50.5076527 52.0476243,50.9022601 52.2037195,51.3265977 C52.4378624,51.9631042 53.1319793,52.7854545 53.4942464,52.6921772 C54.160127,52.6517274 54.5349501,52.2619172 54.6187158,51.5227465 C54.7443642,50.4139905 55.1638407,50.4015535 55.3016914,50.4139905 C55.4395421,50.4264275 56.8960381,50.0927613 56.5054758,52.1263838 C56.1149135,54.1600064 55.8693641,53.5696056 55.8688335,54.9237253 C55.868303,56.277845 55.4984315,57.5645385 55.868303,57.9092203 C56.2381745,58.2539021 56.0521335,59.6896616 57.2447766,59.3169967 C58.039872,59.0685534 58.5671061,58.3338541 58.8264789,57.1128988 C59.1078394,53.482606 59.0769504,51.4871531 58.7338121,51.1265401 C58.2191045,50.5856207 58.8198472,47.5263033 59.7151253,46.0814826 C60.3119774,45.1182687 60.3119774,42.6008184 59.7151253,38.5291315 C58.2690632,36.5948863 57.5547565,35.2774261 57.5722052,34.5767508 C57.5983783,33.5257378 57.059443,32.4135172 58.0843485,31.5502137 C58.7676189,30.974678 59.3112112,31.2533847 59.7151253,32.3863336 C59.9869952,33.5078523 60.1711203,34.2379914 60.2675009,34.5767508 C60.4120717,35.0848899 60.9312889,36.5575162 61.3187564,36.4476267 C61.706224,36.3377371 62.043998,35.5701095 62.043998,34.9507483 C62.043998,34.3313871 62.0898009,31.4483194 62.7449235,30.3639043 C63.1816718,29.6409609 63.046238,28.3300745 62.3386219,26.431245 C60.7766084,24.2510439 59.9994922,22.9581614 60.0072734,22.5525977 C60.0189452,21.9442521 59.5372192,19.8716308 59.1355156,19.8146872 C58.7338121,19.7577437 56.6329811,18.9165602 56.5054758,18.6796359 C56.3779705,18.4427116 55.0330637,17.7773336 55.3016914,16.4709186 C55.5703191,15.1645035 56.1149135,15.8473599 56.7321912,16.0855501 C57.5480954,16.333342 58.0458553,16.3890418 58.2254709,16.2526497 C58.4948944,16.0480615 58.4704898,14.4927294 58.0843485,13.9625591 C57.6982073,13.4323887 56.2688571,10.2255156 58.0843485,8.99123497 C59.2946762,8.16838124 60.0768914,8.31741761 60.4309942,9.4383441 C60.7048093,10.4874915 60.7460142,11.3294449 60.5546089,11.9642042 C60.2675009,12.9163432 59.5835526,13.3713587 60.0072734,14.348727 C60.4309942,15.3260953 61.0184735,16.078621 61.3187564,16.669999 C61.6190393,17.261377 62.1567368,18.3466804 62.043998,19.6553163 C61.9312593,20.9639523 62.5604741,22.2720552 62.6526988,22.3579591 C62.7449235,22.4438631 63.3249753,24.1601651 63.9429604,23.9808951 C64.5609455,23.801625 65.4834578,23.1333155 65.4623248,22.3579591 C65.4482361,21.8410549 65.4093302,20.236767 65.345607,17.5450954 C64.4341475,14.9529492 63.8090592,13.5555147 63.4703419,13.3527921 C62.962266,13.0487081 62.5999105,10.7208624 62.962266,10.1637749 C63.3246216,9.6066874 63.4728178,9.31868267 64.1685263,9.6066874 C64.8642348,9.89469213 65.4623248,11.3006029 65.4623248,11.7739185 C65.4623248,12.2472342 65.936358,13.1176445 66.2490201,12.8051212 C66.5616821,12.4925978 67.3890518,11.0733617 67.0713496,10.3400245 C66.7536475,9.6066874 66.1014428,8.30551365 66.3591061,7.16797492 C66.5308816,6.40961577 66.9967505,5.65409935 67.7567127,4.90142567 C68.2646707,2.80005125 68.3517374,1.59671502 68.0179128,1.29141697 C67.517176,0.833469908 67.9014604,-0.151005235 68.8515605,0.0196477834 C69.8016606,0.190300802 70.8989843,0.526898557 70.697204,1.76881901 C70.5626839,2.59676599 70.4954238,3.53321073 70.4954238,4.57815324 C70.2980058,5.78602009 69.974674,6.64929398 69.5254286,7.16797492 C68.8515605,7.94599634 69.1436201,9.27000081 69.3345244,9.4383441 C69.5254286,9.6066874 70.4139867,10.3400245 70.697204,10.3400245 C70.9804214,10.3400245 71.4698401,10.7467135 71.0835221,11.0842885 C70.8259767,11.3093384 70.2496092,11.7739185 69.7598368,12.8051212 C69.6349841,13.078142 69.3345244,13.2551915 69.3345244,13.6132578 C69.3345244,14.1503573 70.310886,14.5105853 70.697204,14.348727 C71.0835221,14.1868687 73.1404071,14.4606598 73.3708362,13.9625591 C73.6012653,13.4644583 77.8661494,10.3696956 78.4471739,8.58037073 C79.0281983,6.79104585 78.3895224,3.52891701 78.6103134,3.52891701 C78.8311045,3.52891701 78.5241015,2.77950063 79.7852721,2.99688113 C80.6260525,3.14180146 80.9278681,3.46329718 80.6907188,3.96136828 C80.6058921,4.91558013 80.767558,5.33446918 81.1757164,5.21803544 C81.787954,5.04338482 82.2461596,3.78014384 82.575622,3.65453043 C82.9050843,3.52891701 83.7698567,2.99670346 84.050333,3.65453043 C84.3308093,4.31235739 84.7001502,4.81179064 84.1953459,5.47823465 C83.6905417,6.14467866 82.4399818,8.5207621 81.2835035,9.27115567 C80.1270252,10.0215492 76.528228,13.2639566 76.5398998,13.6132578 C76.5515716,13.9625591 75.7209303,15.3198324 77.6266128,15.8473599 C78.8970677,16.1990449 79.8084977,15.6995006 80.3609028,14.348727 C80.9354724,13.939906 81.3453993,13.8662317 81.5906834,14.1277043 C81.9586095,14.5199131 82.3265357,15.2239345 81.9586095,15.9469667 C81.5906834,16.669999 80.7499619,16.685212 80.8779977,17.1151537 C81.0060336,17.5450954 81.2227572,17.7627646 81.5906834,17.7144381 C81.8359675,17.6822204 82.0982287,17.5664973 82.3774671,17.3672689 C83.2997141,17.1832017 83.7000324,17.4008487 83.5784219,18.0202099 C83.3960062,18.9492517 83.3655889,19.1363393 82.575622,19.3958278 C81.7856551,19.6553163 80.5695799,19.6553163 79.8808568,19.6553163 C79.1921337,19.6553163 75.8355259,18.4818881 75.2296547,17.3672689 C74.8257406,16.6241894 73.6869173,16.3917661 71.8131848,16.669999 C69.797269,16.8171698 68.7517315,17.4036322 68.6765723,18.4293863 C68.5638336,19.9680173 68.658092,20.9336594 68.0179128,22.8463768 C67.3777337,24.7590942 66.8949467,25.3294182 67.2305986,26.0958021 C67.5662505,26.8621861 68.248342,27.2258787 68.6765723,26.5489521 C69.1048026,25.8720255 70.0183842,24.0759491 69.8891105,23.5804246 C69.7598368,23.0849001 70.1715321,22.1633205 70.9923585,22.3579591 C71.8131848,22.5525977 72.1132025,23.2122902 72.0560815,23.768134 C71.9989606,24.3239778 71.5821368,24.9961961 72.1132025,24.8991878 C72.6442682,24.8021794 73.1118466,23.6483838 73.1300616,23.2473803 C73.1482767,22.8463768 74.1883909,22.2588187 74.5024678,22.5525977 C74.8165446,22.8463768 75.7961779,23.0506984 75.6175644,23.768134 C75.4389508,24.4855696 74.5880608,25.4556534 74.172298,25.7757278 C73.7565353,26.0958021 68.2313648,29.1917197 67.0713496,31.1650229 C65.9113344,33.1383262 65.2958251,32.8617812 64.8014548,35.0848899 C64.3070844,37.3079986 64.7022447,38.7037821 64.8014548,38.797859 C64.9006648,38.8919358 65.5759477,39.6146127 65.9124839,39.4649248 C66.2490201,39.315237 67.3898476,38.1683705 67.2305986,37.3079986 C67.0713496,36.4476267 67.231306,34.8006163 67.7567127,34.7875574 C68.2821194,34.7744986 69.5254286,34.3590149 69.5254286,34.7875574 C69.5254286,35.2161 69.9354439,35.6215452 69.6349841,36.1913362 C69.3345244,36.7611272 69.2910205,37.0531295 69.5254286,37.0531295 C69.7598368,37.0531295 70.4954238,36.991833 70.697204,37.3079986 C70.8989843,37.6241642 71.3612573,37.740361 71.0835221,38.3885049 C70.8057869,39.0366488 70.7393816,39.3776883 70.2496092,39.6123029 C69.7598368,39.8469175 64.5681961,42.1091138 64.5442336,42.4807128 C64.5202711,42.8523117 63.6456838,43.3500571 63.7023627,44.6366618 C63.7590415,45.9232665 63.5124311,46.3752616 63.2373486,47.0401066 C62.962266,47.7049516 62.3386219,48.4867041 62.3386219,49.3147399 C62.3386219,50.1427757 62.3485252,51.2372292 62.7449235,51.6225088 C63.1413217,52.0077884 63.2383212,51.7222711 63.4703419,51.6225088 C63.7023627,51.5227465 64.3826856,49.6453857 64.3734013,48.9972418 C64.3641169,48.3490979 64.9849315,47.1530165 65.345607,47.1470645 C65.7062825,47.1411126 66.0452061,46.6694848 66.3591061,46.8547957 C66.6730061,47.0401066 67.3898476,47.6373477 67.2305986,48.6432322 C67.0713496,49.6491167 66.5023506,51.8672506 65.6519027,52.9015625 C64.8014548,53.9358744 61.4933594,59.5359469 61.3187564,60.1691069 C61.1441534,60.8022669 60.8057289,62.0291449 61.5721754,62.8995552 C62.3386219,63.7699655 63.1299152,63.7062705 63.4703419,63.7699655 C63.8107687,63.8336606 67.3507648,61.8785687 67.7567127,60.1691069 C68.1626605,58.4596451 66.9852261,58.1377053 66.9638278,57.5360223 C66.9424296,56.9343394 67.2404135,55.7541596 66.9424296,55.3389424 C66.6444456,54.9237253 66.138934,54.8238742 66.2490201,54.2058455 C66.3591061,53.5878168 66.8716031,52.9464244 67.2305986,53.3667941 C67.5895941,53.7871637 68.2340175,53.7518072 68.3376487,54.4617806 C68.4412799,55.171754 68.4194396,55.4383494 69.3345244,55.7252881 C70.2496092,56.0122268 70.9923585,54.9167961 70.9923585,54.6892883 C70.9923585,54.4617806 71.1447989,50.3327948 70.697204,49.8237674 C70.2496092,49.3147399 69.3782935,45.6132306 70.0377488,44.6366618 C70.697204,43.660093 70.6068362,43.300398 71.0835221,43.5436297 C71.560208,43.7868613 71.8131848,43.7883715 71.8131848,44.1258576 C71.8131848,44.4633437 72.1134678,45.8020949 71.8131848,46.3284453 C71.5129019,46.8547957 72.3535349,48.2254388 72.8008645,48.0696213 C73.2481941,47.9138039 74.1192445,46.1348727 74.0415211,45.5641046 C73.9637977,44.9933364 74.712206,40.3807301 74.0415211,39.2020605 C73.3708362,38.023391 74.3484357,33.9131495 74.5024678,33.5257378 C74.6564998,33.1383262 74.6564998,31.9545041 75.4097714,32.0635941 C76.163043,32.1726841 77.2180122,31.7938007 77.0974039,32.7668161 C76.9767955,33.7398314 77.0209184,34.6513726 76.5398998,35.3151515 C76.0588812,35.9789305 75.9396877,36.7599723 76.4262769,36.7540203 C76.9128661,36.7480684 77.7152121,35.9908345 77.721048,35.652993 C77.7268839,35.3151515 78.1298254,34.8546283 78.6103134,35.0848899 C79.0908015,35.3151515 80.2090813,36.1172474 79.8808568,36.6562124 C79.5526324,37.1951775 79.3350245,37.983415 78.2162142,38.797859 C77.4703407,39.3408216 77.0974039,40.3636737 77.0974039,41.8664152 C77.0303796,43.5020547 76.8066706,44.4603529 76.4262769,44.74131 C75.8556862,45.1627457 76.1979699,46.8624356 76.7881019,46.7075064 C77.3782339,46.5525773 78.2025971,45.2979534 78.3248855,44.9673076 C78.4471739,44.6366618 79.3086177,41.8021106 79.1186546,41.0313614 C78.9286915,40.2606122 80.0448806,39.4347207 80.4614392,39.7092225 C80.8779977,39.9837242 81.5212717,40.2535177 81.2835035,41.1739424 C81.0457353,42.0943671 81.5118105,44.4497519 80.8779977,45.3890986 C80.244185,46.3284453 74.9529806,53.8114158 74.0415211,54.4617806 C73.1300616,55.1121454 73.5805744,56.774702 74.0415211,56.7438761 C74.5024678,56.7130501 75.6175644,56.1599602 76.1473038,55.8291368 C76.6770432,55.4983134 78.0723507,55.5905246 78.0723507,56.1599602 C78.0723507,56.539584 77.9967495,57.1226707 77.8455469,57.9092203 C77.4118217,58.9026083 76.2231703,59.3169967 75.7708006,59.3169967 C75.3184309,59.3169967 74.6254341,59.8727516 73.69181,60.9842616 C69.9528926,64.564155 67.1259653,66.6352958 65.2110279,67.1976838 C63.2960906,67.7600718 62.8764835,70 62.5526929,70 C62.3368325,70 60.3966652,70 56.7321912,70 C56.5591987,69.8406042 55.4359962,65.6563286 54.7662361,64.2682288 C53.4055531,61.4481687 51.8866179,60.0918839 51.3444528,59.8525982 C50.1309058,59.3169967 49.9598082,60.4105023 47.4468398,60.4105023 C44.9338714,60.4105023 45.5679855,61.0246348 43.9848685,60.9232438 C41.6101929,60.7711574 39.858012,59.5704566 39.2471891,58.6430139 C38.8399739,58.0247187 38.8399739,57.4686084 39.2471891,56.974683 C39.5322634,56.7443029 39.9613485,56.6526839 40.5344444,56.6998259 C41.1075403,56.746968 41.6106645,57.0917682 42.043817,57.7342266 C42.4769696,58.376685 43.6443828,58.1803586 43.9848685,57.5080514 C44.3253542,56.8357442 44.1551114,56.2538124 43.4741399,55.7622559 C41.2424731,54.8994854 40.1271702,53.7234217 40.1282313,52.2340647 C40.1292923,50.7447078 41.6159324,49.4385123 42.3876039,51.0653447 C43.1592753,52.6921772 48.1621908,56.2544217 48.9800343,57.1836241 C49.5252633,57.8030924 50.0473099,57.7904778 50.5461742,57.1457802 C51.0894423,56.5026111 51.0220643,55.6966953 50.3440403,54.7280329 C49.6660163,53.7593705 48.5169949,52.2896758 46.8969762,50.3189488 C45.2269693,48.3815055 43.1061254,47.2479051 40.5344444,46.9181477 C37.9627634,46.5883903 36.4486159,45.2656887 35.992002,42.950043 C35.956633,42.19198 36.3100873,41.8093358 37.052365,41.8021106 C37.7946427,41.7948853 39.0744637,42.2805512 40.1282313,43.9585038 C40.4517398,44.4882003 41.0902684,44.6995104 42.043817,44.592434 C42.9973656,44.4853576 42.7998819,42.5639365 41.844159,41.8021106 C40.0496531,40.0924415 39.0821337,38.6518256 38.9416009,37.4802629 C38.7308015,35.7229188 38.4092972,33.8993034 37.052365,33.2660839 C36.1477435,32.8439375 35.6043656,32.7668161 35.2816153,32.6328644 C33.6085431,31.9317745 32.6283498,30.5991234 32.3410356,28.634911 C32.0537213,26.6706986 33.0771009,26.5644935 33.7977084,27.2108777 C34.5183158,27.8572619 34.5992292,29.0914071 35.2816153,29.2318856 C35.9640015,29.3723642 36.5542514,29.0642234 37.052365,28.3074633 C37.4870502,27.5395691 37.2241995,26.3523713 36.2638128,24.7458699 C35.3034262,23.1393685 33.7977084,20.8188073 32.6130233,20.4616885 C31.3279491,20.0952124 30.1768056,20.214252 29.1595928,20.8188073 C28.14238,21.4233626 27.4725873,19.9680173 28.4377112,18.780743 C29.1595928,18.0595763 29.8894686,18.179043 30.3331367,18.0595763 C30.7768047,17.9401096 30.8337046,17.1151537 30.3331367,16.7043017 C29.7627309,16.0855501 28.9381828,15.6934128 28.7379941,15.0620884 C28.4377112,14.1151019 28.7277371,13.2155535 29.5304369,13.3141609 C30.3331367,13.4127683 31.0364495,13.5732053 32.6130233,16.2979681 C34.189597,19.0227309 33.5108657,19.5559217 35.2816153,20.1873645 C36.4621151,20.6083264 37.3274555,17.7144381 36.5303184,16.2979681 C35.022059,14.0273494 33.3060201,12.6902395 32.6130233,12.5332968 C31.573528,12.2978827 31.5314388,10.4046202 31.573528,10.0913862 C31.6156171,9.7781522 31.6587673,8.9111176 32.3410356,9.33983778 C33.0233038,9.76855796 33.0434642,10.9754772 34.1625398,11.0508097 C34.9085901,11.1010314 35.2816153,10.0780609 35.2816153,7.98189814 C35.2684109,6.82573357 34.9687764,5.45132975 34.3827119,3.85868669 C33.7966473,2.26604363 34.3330773,1.80883686 35.992002,2.48706639 C36.8215902,2.82896688 37.2303301,4.04826167 37.2544989,5.01052794 C37.2907522,6.45392734 37.2571516,8.96210918 37.052365,11.593417 C36.9158406,13.3476223 37.366265,13.6609155 38.4036382,12.5332968 C40.0814263,11.1724552 41.0742934,10.1079688 41.3822396,9.33983778 C41.6901859,8.57170672 41.5362127,7.81032716 40.9203203,7.0556991 C40.6630697,6.78611293 40.5344444,6.41537273 40.5344444,5.94347849 C40.5344444,5.23563713 41.8160234,6.03782772 41.9308653,5.38779607 C41.9999104,4.99313465 42.04071,4.76141462 42.0528884,4.69300243 C42.2935457,3.34110083 42.0350978,2.70475279 41.7549044,2.37260904 C41.3027116,1.83657557 42.5682149,1.26607391 43.0662106,1.51605704 C43.5642063,1.76604017 44.5276582,2.2496705 44.4896365,3.33541323 C44.4516149,4.42115595 44.7893889,6.2143896 43.9277998,7.68443965 C43.353407,8.66447301 42.7284365,9.7488585 42.0528884,10.9375961 C41.3773402,12.1263337 44.5515323,11.2191454 44.9257365,10.9375961 C45.2999406,10.6560467 45.4870427,9.80470642 45.4870427,8.38357513 C45.6757954,7.7678858 45.9819142,7.46004114 46.4053992,7.46004114 C46.8288842,7.46004114 47.176031,7.63540244 47.4468398,7.98612505 C47.7176485,8.33684765 47.3425601,9.44687698 47.644022,9.57859043 C48.0962149,9.77616061 48.8005888,8.9073493 49.2151136,9.38102025 C49.6296384,9.8546912 49.9944698,10.4998147 49.2151136,11.2593583 C48.4357574,12.0189019 46.8959674,12.5572451 46.1005183,12.579987 C45.3050692,12.6027289 39.801518,14.0539209 39.0109763,15.3619599 C38.2204347,16.669999 38.8811721,19.3025848 38.4945887,20.6139154 C38.1080054,21.925246 38.3012971,22.658672 39.0744637,22.8141934 C39.9275643,22.7160005 40.7307946,21.9197382 41.4841546,20.4254064 C42.6141946,18.1839088 41.5212921,18.1839088 41.5212921,17.486439 C41.4872621,16.8335377 41.7385,16.4434684 42.335411,16.3748874 Z"/></defs><g fill="none" fill-rule="evenodd"><use xlink:href="#a" fill="#BCFFDE"/><use xlink:href="#a" fill="url(#b)"/><polygon fill="#444" fill-rule="nonzero" points="18.003 16.936 21.057 20 6.107 35 21.057 50 18.003 53.064 0 35"/><polygon fill="#444" fill-rule="nonzero" points="108.946 16.936 112 20 97.05 35 112 50 108.946 53.064 90.943 35" transform="rotate(-180 101.471 35)"/></g></svg>