<svg xmlns="http://www.w3.org/2000/svg" width="239" height="650" viewBox="0 0 239 650"><defs><linearGradient id="a" x1="50%" x2="50%" y1="0%" y2="100%"><stop offset="0%" stop-color="#FF785D"/><stop offset="100%" stop-color="#BCFFDE"/><stop offset="100%" stop-color="#FF785D"/></linearGradient></defs><path fill="url(#a)" fill-rule="evenodd" d="M133.289524,862.052526 C138.827837,861.415702 143.255931,864.159598 146.573805,870.284215 C149.431976,873.229112 151.828598,871.398656 153.763672,864.792847 C155.698745,858.187039 159.782403,855.640775 166.014647,857.154056 C173.005632,859.324234 174.449143,864.579129 170.34518,872.918743 C164.189235,885.428163 126.092069,932.967631 109.523893,941.206744 C108.195376,941.81882 107.334766,943.881073 106.942063,947.393502 C106.353009,952.662146 104.003355,977.160887 109.523893,994.949881 C113.204251,1006.80921 118.79507,1006.42453 126.296351,993.795844 C129.37781,987.174221 123.80834,977.662426 129.536032,969.426613 C135.263723,961.1908 129.612447,961.1908 142.536363,950.240236 C151.152307,942.939861 155.802664,946.004644 156.487432,959.434585 C157.504194,969.07383 156.596273,976.932664 153.763672,983.011086 C150.93107,989.089508 142.80245,1001.85595 129.37781,1021.31042 C125.282324,1029.92734 125.282324,1038.178 129.37781,1046.06241 C135.521039,1057.88902 144.902425,1076.804 148.47613,1078.72849 C152.049836,1080.65299 161.202328,1080.53503 161.838145,1074.01913 C162.473963,1067.50324 161.150642,1053.44362 158.819037,1050.37912 C156.487432,1047.31461 155.28143,1039.69582 156.487432,1037.00664 C157.693435,1034.31746 167.565836,1031.41629 170.34518,1035.78826 C173.124523,1040.16024 180.038937,1043.23877 178.687722,1054.06477 C177.336507,1064.89078 176.873796,1089.1272 172.205664,1097.57171 C169.093576,1103.20139 170.220819,1111.6833 175.587393,1123.01744 C187.528185,1145.98379 195.446234,1158.28196 199.341539,1159.91197 C203.236845,1161.54197 208.080818,1160.72697 213.873459,1157.46696 C220.557611,1145.76656 223.124126,1134.77201 221.573005,1124.48329 C220.021883,1114.19457 216.878017,1112.63839 214.783175,1105.83543 L208.754922,1094.61692 C204.501917,1087.66685 200.76413,1083.79779 197.54156,1083.00973 C192.707706,1081.82765 187.800834,1068.31989 194.730016,1067.77051 C201.659197,1067.22112 210.640223,1065.02854 215.391217,1074.01913 C218.558546,1080.01287 221.566168,1081.28266 224.414084,1077.82853 C227.305755,1068.59403 227.305755,1061.46166 224.414084,1056.43142 C221.522413,1051.40117 209.168408,1037.90276 187.35207,1015.93619 C178.781522,1010.81246 174.40026,1006.0338 174.208285,1001.60023 C173.920321,994.949881 167.309458,984.066134 179.992174,978.374316 C188.447317,974.579771 196.003018,981.993708 202.659277,1000.61613 C207.978814,1013.19862 213.389417,1018.89759 218.891085,1017.71303 C224.392753,1016.52847 227.143587,1014.20087 227.143587,1010.73024 C227.551058,1002.42459 225.694197,996.164685 221.573005,991.95054 C217.451813,987.736395 210.668117,976.897743 201.221919,959.434585 C194.382435,950.20834 191.241086,938.516741 191.797871,924.359787 C192.633048,903.124356 197.509564,892.596967 201.221919,891.572439 C204.934273,890.547912 211.765005,885.687594 218.891085,895.417304 C223.641805,901.903777 223.010363,909.903668 216.996759,919.416979 C211.805205,930.84461 211.270025,938.634152 215.391217,942.785604 C219.512409,946.937057 224.154288,955.817393 229.316853,969.426613 C231.14582,973.035281 230.309667,973.231057 233.116171,972.133114 C235.922675,971.03517 236.713786,969.470333 238.032887,964.452459 C239.351988,959.434585 238.178627,952.003603 234.893179,945.44921 C231.60773,938.894817 234.915858,930.314748 236.824423,928.09164 C238.732989,925.868531 242.36219,921.985721 251.75096,927.668465 C258.01014,931.456962 262.884344,938.246858 261.13973,950.240236 L256.086826,972.133114 C252.362165,1001.94999 249.015713,1020.0134 246.047471,1026.32335 C241.595106,1035.78826 240.759109,1055.43246 247.614453,1059.36724 C254.469798,1063.30202 254.559222,1056.43142 256.086826,1056.43142 C257.614429,1056.43142 269.431612,1050.96397 268.883578,1059.36724 C268.335544,1067.77051 264.093205,1081.98685 257.466755,1092.32947 C253.049121,1099.22454 251.143856,1106.55929 251.75096,1114.3337 C248.279532,1139.68237 240.077075,1160.1083 227.143587,1175.61149 C224.166594,1178.99963 223.402245,1182.66384 224.850542,1186.60412 C227.022987,1192.51454 233.463204,1200.15065 236.824423,1199.2845 C243.002656,1198.9089 246.480373,1195.28923 247.257575,1188.4255 C248.423377,1178.12991 252.315402,1178.01443 253.59442,1178.12991 C254.873439,1178.2454 268.38723,1175.14707 264.76348,1194.03071 C261.13973,1212.91434 258.861452,1207.43205 258.856529,1220.00602 C258.851607,1232.57999 255.419832,1244.52786 258.851607,1247.72847 C262.283381,1250.92909 260.557239,1264.26114 271.622926,1260.80068 C279.000051,1258.49371 283.891882,1251.6715 286.298417,1240.33406 C288.908961,1206.6242 288.622365,1188.09499 285.438628,1184.74644 C280.663022,1179.72362 286.236886,1151.31567 294.543536,1137.89948 C300.081302,1128.95535 300.081302,1105.57903 294.543536,1067.77051 C281.126554,1049.80966 274.49901,1037.5761 274.660904,1031.06983 C274.903745,1021.31042 269.903347,1010.98266 279.412718,1002.96627 C285.752298,997.62201 290.795904,1000.21 294.543536,1010.73024 C297.066023,1021.14434 298.774389,1027.92421 299.668636,1031.06983 C301.010006,1035.78826 305.827453,1049.46265 309.422488,1048.44225 C313.017524,1047.42184 316.15149,1040.29387 316.15149,1034.54266 C316.15149,1028.79145 316.576462,1002.02011 322.654878,991.95054 C326.707156,985.237494 325.450562,973.064977 318.885095,955.432989 C304.392282,935.188265 297.181974,923.182928 297.25417,919.416979 C297.362464,913.768056 292.892871,894.522286 289.16575,893.993524 C285.438628,893.464763 265.946511,885.653773 264.76348,883.453762 C263.580449,881.253751 251.102015,875.075241 253.59442,862.944244 C256.086826,850.813247 261.13973,857.154056 266.867011,859.365823 C274.437205,861.666747 279.055566,862.18396 280.722092,860.917462 C283.22188,859.017714 282.995447,844.575344 279.412718,839.652334 C275.829988,834.729324 262.568063,804.951216 279.412718,793.490039 C290.642487,785.849254 297.900106,787.233164 301.185574,797.641767 C303.72611,807.38385 304.108421,815.201988 302.332507,821.096182 C299.668636,829.937473 293.322766,834.162617 297.25417,843.23818 C301.185574,852.313742 306.636377,859.30148 309.422488,864.792847 C312.2086,870.284215 317.197512,880.362032 316.15149,892.513652 C315.105467,904.665271 320.943504,916.811941 321.799191,917.60962 C322.654878,918.4073 328.036767,934.344391 333.770611,932.67974 C339.504455,931.015089 348.063791,924.809358 347.867713,917.60962 C347.736994,912.809795 347.376014,897.912836 346.784772,872.918743 C338.327988,848.848814 332.528237,835.872637 329.385521,833.990212 C324.671446,831.166576 321.309406,809.550865 324.671446,804.37791 C328.033485,799.204954 329.408492,796.530625 335.863477,799.204954 C342.318461,801.879284 347.867713,814.93417 347.867713,819.329244 C347.867713,823.724317 352.26593,831.806699 355.166899,828.904697 C358.067868,826.002694 365.744443,812.824073 362.796711,806.014514 C359.848978,799.204954 353.797635,787.122627 356.188309,776.559767 C357.782092,769.517861 362.104558,762.502351 369.155707,755.513238 C373.868688,736.000476 374.676518,724.826639 371.579198,721.991729 C366.933217,717.739363 370.498718,708.597809 379.314022,710.182444 C388.129325,711.767079 398.310611,714.892629 396.438436,726.424748 C395.190319,734.112827 394.566261,742.808385 394.566261,752.511423 C392.734559,763.727329 389.734594,771.743444 385.566365,776.559767 C379.314022,783.784252 382.023835,796.078579 383.7951,797.641767 C385.566365,799.204954 393.810663,806.014514 396.438436,806.014514 C399.066208,806.014514 403.607177,809.790911 400.022806,812.925536 C397.633226,815.015285 392.285521,819.329244 387.741271,828.904697 C386.582853,831.43989 383.7951,833.083921 383.7951,836.408823 C383.7951,841.396175 392.854065,844.741149 396.438436,843.23818 C400.022806,841.73521 419.10718,844.277555 421.245168,839.652334 C423.383155,835.027113 462.953982,806.290031 468.344895,789.674871 C473.735808,773.059711 467.809988,742.768515 469.858551,742.768515 C471.907115,742.768515 469.058652,735.809649 480.760157,737.828182 C488.561161,739.173871 491.361493,742.159188 489.161154,746.784134 C488.374107,755.644673 489.87409,759.534357 493.661102,758.453186 C499.341619,756.83143 503.592983,745.101336 506.64983,743.934925 C509.706677,742.768515 517.730285,737.826532 520.332625,743.934925 C522.934965,750.043319 526.361817,754.680913 521.678097,760.869322 C516.994377,767.05773 505.391321,789.121362 494.661181,796.089303 C483.931041,803.057243 450.540361,833.165311 450.648656,836.408823 C450.75695,839.652334 443.05002,852.255587 460.731492,857.154056 C472.519141,860.419703 480.975651,855.781077 486.101025,843.23818 C491.432048,839.441984 495.235468,838.757866 497.511285,841.185825 C500.92501,844.827764 504.338735,851.365106 500.92501,858.078977 C497.511285,864.792847 489.710828,864.934112 490.898782,868.926427 C492.086735,872.918743 494.09756,874.939957 497.511285,874.491211 C499.787102,874.192046 502.220437,873.117475 504.811292,871.267497 C513.368166,869.558302 517.082435,871.579309 515.954098,877.330521 C514.261592,885.957337 513.979371,887.694579 506.64983,890.104115 C499.320289,892.513652 488.037192,892.513652 481.64702,892.513652 C475.256848,892.513652 444.113271,881.617532 438.491823,871.267497 C434.744191,864.367473 424.177859,862.209257 406.792828,864.792847 C388.088578,866.159434 378.387779,871.605156 377.69043,881.130015 C376.644408,895.417304 377.518965,904.38398 371.579198,922.144927 C365.639431,939.905874 361.159993,945.20174 364.274269,952.318162 C367.388544,959.434585 373.717186,962.81173 377.69043,956.525983 C381.663675,950.240236 390.14015,933.562384 388.94071,928.961086 C387.741271,924.359787 391.561099,915.802262 399.176964,917.60962 C406.792828,919.416979 409.576479,925.542695 409.046494,930.704102 C408.516509,935.865508 404.649097,942.107536 409.576479,941.206744 C414.50386,940.305951 418.842187,929.592135 419.011192,925.868531 C419.180196,922.144927 428.830677,916.689031 431.744772,919.416979 C434.658868,922.144927 443.748188,924.0422 442.090961,930.704102 C440.433733,937.366004 432.538929,946.373925 428.681362,949.346044 C424.823795,952.318162 373.559667,981.065969 362.796711,999.389499 C352.033754,1017.71303 346.322881,1015.14511 341.73597,1035.78826 C337.149059,1056.43142 340.81547,1069.39226 341.73597,1070.26583 C342.65647,1071.1394 348.92194,1077.84997 352.044419,1076.46002 C355.166899,1075.07006 365.751827,1064.42058 364.274269,1056.43142 C362.796711,1048.44225 364.280832,1033.14858 369.155707,1033.02732 C374.030582,1032.90606 385.566365,1029.048 385.566365,1033.02732 C385.566365,1037.00664 389.370605,1040.77149 386.582853,1046.06241 C383.7951,1051.35332 383.391458,1054.06477 385.566365,1054.06477 C387.741271,1054.06477 394.566261,1053.49559 396.438436,1056.43142 C398.310611,1059.36724 402.599713,1060.44621 400.022806,1066.46469 C397.445899,1072.48317 396.829771,1075.64996 392.285521,1077.82853 C387.741271,1080.00709 339.571729,1101.0132 339.349398,1104.46376 C339.127067,1107.91432 331.012393,1112.53624 331.538276,1124.48329 C332.064159,1136.43033 329.776036,1140.62743 327.223741,1146.80099 C324.671446,1152.97455 318.885095,1160.23368 318.885095,1167.92258 C318.885095,1175.61149 318.976981,1185.77427 322.654878,1189.35187 C326.332776,1192.92946 327.232765,1190.27823 329.385521,1189.35187 C331.538276,1188.4255 337.850509,1170.99287 337.764366,1164.97439 C337.678223,1158.95591 343.43832,1147.84944 346.784772,1147.79417 C350.131224,1147.7389 353.275855,1143.3595 356.188309,1145.08025 C359.100764,1146.80099 365.751827,1152.3468 364.274269,1161.68716 C362.796711,1171.02751 357.517373,1191.62447 349.626672,1201.22879 C341.73597,1210.83312 311.042505,1262.83379 309.422488,1268.71314 C307.802471,1274.59248 304.662471,1285.98492 311.773783,1294.0673 C318.885095,1302.14968 326.226943,1301.55823 329.385521,1302.14968 C332.544098,1302.74113 365.389206,1284.58671 369.155707,1268.71314 C372.922209,1252.83956 361.997631,1249.85012 361.799092,1244.26306 C361.600553,1238.67601 364.365334,1227.7172 361.600553,1223.86161 C358.835772,1220.00602 354.145489,1219.07883 355.166899,1213.33999 C356.188309,1207.60116 360.943405,1201.64537 364.274269,1205.5488 C367.605133,1209.45223 373.584279,1209.12392 374.5458,1215.71653 C375.50732,1222.30914 375.304679,1224.78467 383.7951,1227.4491 C392.285521,1230.11353 399.176964,1219.94168 399.176964,1217.82911 C399.176964,1215.71653 400.59135,1177.37595 396.438436,1172.64927 C392.285521,1167.92258 384.201203,1133.55143 390.319819,1124.48329 C396.438436,1115.41515 395.599977,1112.07512 400.022806,1114.3337 C404.445636,1116.59228 406.792828,1116.60631 406.792828,1119.74011 C406.792828,1122.87391 409.57894,1135.30517 406.792828,1140.19271 C404.006716,1145.08025 411.806353,1157.80765 415.956806,1156.36077 C420.107259,1154.91389 428.189116,1138.39525 427.467976,1133.09526 C426.746836,1127.79527 433.690784,1084.96392 427.467976,1074.01913 C421.245168,1063.07434 430.315618,1024.90782 431.744772,1021.31042 C433.173926,1017.71303 433.173926,1006.7204 440.162998,1007.73337 C447.152069,1008.74635 456.940378,1005.22815 455.821339,1014.26329 C454.7023,1023.29843 455.111685,1031.76275 450.648656,1037.92641 C446.185626,1044.09007 445.079714,1051.3426 449.594429,1051.28733 C454.109144,1051.23206 461.553543,1044.20061 461.60769,1041.06351 C461.661837,1037.92641 465.400445,1033.65012 469.858551,1035.78826 C474.316658,1037.92641 484.692381,1045.37444 481.64702,1050.37912 C478.601659,1055.38379 476.58263,1062.70314 466.201985,1070.26583 C459.281555,1075.30763 455.821339,1084.80554 455.821339,1098.75957 C455.199469,1113.94765 453.123832,1122.84613 449.594429,1125.45502 C444.300324,1129.36835 447.476131,1145.15119 452.951546,1143.71256 C458.426961,1142.27393 466.075642,1130.62385 467.210269,1127.55357 C468.344895,1124.48329 476.33762,1098.16246 474.575088,1091.0055 C472.812555,1083.84854 483.16888,1076.17955 487.033831,1078.72849 C490.898782,1081.27744 496.867263,1083.78266 494.661181,1092.32947 C492.455099,1100.87627 496.779479,1122.7477 490.898782,1131.4702 C485.018084,1140.19271 435.92476,1209.67743 427.467976,1215.71653 C419.011192,1221.75564 423.19118,1237.19366 427.467976,1236.90742 C431.744772,1236.62118 442.090961,1231.48535 447.006036,1228.41341 C451.921111,1225.34148 464.867178,1226.19773 464.867178,1231.48535 C464.867178,1235.01042 464.165728,1240.4248 462.762827,1247.72847 C458.738599,1256.95279 447.709948,1260.80068 443.512731,1260.80068 C439.315514,1260.80068 432.885689,1265.96127 424.223255,1276.28243 C389.532499,1309.5243 363.30345,1328.75632 345.536108,1333.97849 C327.768766,1339.20067 323.87553,1360 320.871307,1360 C318.868492,1360 300.86706,1360 266.867011,1360 C265.261937,1358.5199 254.840539,1319.66591 248.626311,1306.77641 C236.001502,1280.59014 221.908381,1267.99606 216.878017,1265.77413 C205.618377,1260.80068 204.030884,1270.95466 180.714837,1270.95466 C157.39879,1270.95466 163.282285,1276.65732 148.593667,1275.71584 C126.560741,1274.3036 110.3035,1263.15424 104.636109,1254.54227 C100.857848,1248.80096 100.857848,1243.63708 104.636109,1239.05063 C107.28111,1236.91138 111.262286,1236.06064 116.579635,1236.49838 C121.896985,1236.93613 126.565117,1240.13785 130.584031,1246.10353 C134.602945,1252.06922 145.434542,1250.24619 148.593667,1244.00333 C151.752792,1237.76048 150.17323,1232.35683 143.85498,1227.79238 C123.14893,1219.78094 112.800828,1208.86034 112.810672,1195.0306 C112.820517,1181.20086 126.613993,1169.0719 133.773784,1184.1782 C140.933575,1199.2845 187.35207,1232.36249 194.940259,1240.9908 C199.999051,1246.743 204.842751,1246.62586 209.471358,1240.63939 C214.511956,1234.6671 213.886803,1227.1836 207.595901,1218.18888 C201.304998,1209.19415 190.644046,1195.54699 175.613044,1177.24738 C160.118237,1159.25684 140.440434,1148.73055 116.579635,1145.66851 C92.7188359,1142.60648 78.6701381,1130.32425 74.4335418,1108.82183 C74.1053779,1101.78267 77.3848294,1098.22955 84.2718964,1098.16246 C91.1589634,1098.09536 103.033513,1102.60512 112.810672,1118.18611 C115.812279,1123.10472 121.736731,1125.06688 130.584031,1124.0726 C139.43133,1123.07832 137.599019,1105.23655 128.731545,1098.16246 C112.081602,1082.28696 103.104677,1068.90981 101.800773,1058.03101 C99.8449156,1041.71282 96.8619055,1024.77925 84.2718964,1018.89935 C75.878557,1014.97942 70.8369395,1014.26329 67.8423693,1013.01945 C52.3191216,1006.50933 43.2246053,994.134717 40.5588203,975.895602 C37.8930353,957.656487 47.3882476,956.670297 54.0742517,962.672436 C60.7602558,968.674575 61.5109932,980.134494 67.8423693,981.438938 C74.1737454,982.743382 79.6502544,979.882074 84.2718964,972.855016 C88.3050311,965.72457 85.8662261,954.700591 76.9554816,939.783078 C68.0447371,924.865565 54.0742517,903.317496 43.0824009,900.001394 C31.1591115,896.598401 20.4784695,897.703769 11.0404749,903.317496 C1.60248032,908.931224 -4.61204978,895.417304 4.34264913,884.392613 C11.0404749,877.696066 17.8124735,878.8054 21.9289541,877.696066 C26.0454346,876.586732 26.5733684,868.926427 21.9289541,865.111373 C16.6365646,859.365823 8.98616872,855.724548 7.12876088,849.86225 C4.34264913,841.068803 7.03359334,832.715854 14.4812737,833.631494 C21.9289541,834.547135 28.4544938,836.036906 43.0824009,861.338275 C57.710308,886.639644 51.4128422,891.590701 67.8423693,897.454099 C78.7953874,901.36303 86.8242656,874.491211 79.4281968,861.338275 C65.4341306,840.253959 49.5122261,827.837938 43.0824009,826.380613 C33.437663,824.194625 33.047148,806.614331 33.437663,803.705729 C33.8281781,800.797128 34.2285381,792.746092 40.5588203,796.727065 C46.8891025,800.708038 47.0761559,811.915146 57.4592626,812.614662 C64.3813337,813.081006 67.8423693,803.581994 67.8423693,784.117626 C67.7198548,773.381812 64.9397594,760.619491 59.5020831,745.830662 C54.0644068,731.041834 59.0415597,726.796342 74.4335418,733.094188 C82.1307011,736.268978 85.9231079,747.591001 86.1473532,756.526331 C86.4837213,769.929325 86.1719655,793.219585 84.2718964,817.653158 C83.0051836,833.942207 87.1843513,836.851358 96.8093993,826.380613 C112.376402,813.744227 121.588511,803.859711 124.445725,796.727065 C127.302938,789.59442 125.874332,782.524466 120.159904,775.517206 C117.773058,773.013906 116.579635,769.571318 116.579635,765.189443 C116.579635,758.61663 128.470496,766.065543 129.536032,760.029535 C130.176652,756.364822 130.555203,754.213136 130.668197,753.57788 C132.901085,741.024508 130.503131,735.115562 127.903416,732.03137 C123.70784,727.053916 135.449546,721.756401 140.070094,724.077673 C144.690642,726.398944 153.629827,730.889798 153.277051,740.971694 C152.924275,751.053591 156.05824,767.705046 148.064167,781.355511 C142.734785,790.455821 136.936128,800.525115 130.668197,811.563392 C124.400266,822.60167 153.851338,814.177779 157.323312,811.563392 C160.795287,808.949005 162.531274,801.043702 162.531274,787.847483 C164.282575,782.130368 167.122834,779.271811 171.05205,779.271811 C174.981266,779.271811 178.202195,780.900166 180.714837,784.156875 C183.227479,787.413585 179.7473,797.721001 182.544351,798.944054 C186.739927,800.778634 193.275311,792.711101 197.121393,797.109474 C200.967474,801.507847 204.352485,807.498279 197.121393,814.551184 C189.8903,821.60409 175.603684,826.602991 168.223277,826.814165 C160.84287,827.02534 109.779332,840.500694 102.444458,852.646771 C95.1095844,864.792847 101.240097,889.238287 97.6532651,901.414929 C94.0664333,913.59157 95.8598492,920.401954 103.033513,921.846081 C110.948827,920.93429 118.401429,913.540426 125.391321,899.664488 C135.876159,878.850582 125.735893,878.850582 125.735893,872.374076 C125.420153,866.311422 127.751211,862.689349 133.289524,862.052526 Z" opacity=".12" transform="translate(-285 -710)"/></svg>