<svg xmlns="http://www.w3.org/2000/svg" width="1440" height="1360" viewBox="0 0 1440 1360"><defs><linearGradient id="a" x1="50%" x2="50%" y1="0%" y2="100%"><stop offset="0%" stop-color="#FF785D"/><stop offset="100%" stop-color="#BCFFDE"/><stop offset="100%" stop-color="#FF785D"/></linearGradient></defs><path fill="url(#a)" fill-rule="evenodd" d="M133.289524 862.052526C138.827837 861.415702 143.255931 864.159598 146.573805 870.284215 149.431976 873.229112 151.828598 871.398656 153.763672 864.792847 155.698745 858.187039 159.782403 855.640775 166.014647 857.154056 173.005632 859.324234 174.449143 864.579129 170.34518 872.918743 164.189235 885.428163 126.092069 932.967631 109.523893 941.206744 108.195376 941.81882 107.334766 943.881073 106.942063 947.393502 106.353009 952.662146 104.003355 977.160887 109.523893 994.949881 113.204251 1006.80921 118.79507 1006.42453 126.296351 993.795844 129.37781 987.174221 123.80834 977.662426 129.536032 969.426613 135.263723 961.1908 129.612447 961.1908 142.536363 950.240236 151.152307 942.939861 155.802664 946.004644 156.487432 959.434585 157.504194 969.07383 156.596273 976.932664 153.763672 983.011086 150.93107 989.089508 142.80245 1001.85595 129.37781 1021.31042 125.282324 1029.92734 125.282324 1038.178 129.37781 1046.06241 135.521039 1057.88902 144.902425 1076.804 148.47613 1078.72849 152.049836 1080.65299 161.202328 1080.53503 161.838145 1074.01913 162.473963 1067.50324 161.150642 1053.44362 158.819037 1050.37912 156.487432 1047.31461 155.28143 1039.69582 156.487432 1037.00664 157.693435 1034.31746 167.565836 1031.41629 170.34518 1035.78826 173.124523 1040.16024 180.038937 1043.23877 178.687722 1054.06477 177.336507 1064.89078 176.873796 1089.1272 172.205664 1097.57171 169.093576 1103.20139 170.220819 1111.6833 175.587393 1123.01744 187.528185 1145.98379 195.446234 1158.28196 199.341539 1159.91197 203.236845 1161.54197 208.080818 1160.72697 213.873459 1157.46696 220.557611 1145.76656 223.124126 1134.77201 221.573005 1124.48329 220.021883 1114.19457 216.878017 1112.63839 214.783175 1105.83543L208.754922 1094.61692C204.501917 1087.66685 200.76413 1083.79779 197.54156 1083.00973 192.707706 1081.82765 187.800834 1068.31989 194.730016 1067.77051 201.659197 1067.22112 210.640223 1065.02854 215.391217 1074.01913 218.558546 1080.01287 221.566168 1081.28266 224.414084 1077.82853 227.305755 1068.59403 227.305755 1061.46166 224.414084 1056.43142 221.522413 1051.40117 209.168408 1037.90276 187.35207 1015.93619 178.781522 1010.81246 174.40026 1006.0338 174.208285 1001.60023 173.920321 994.949881 167.309458 984.066134 179.992174 978.374316 188.447317 974.579771 196.003018 981.993708 202.659277 1000.61613 207.978814 1013.19862 213.389417 1018.89759 218.891085 1017.71303 224.392753 1016.52847 227.143587 1014.20087 227.143587 1010.73024 227.551058 1002.42459 225.694197 996.164685 221.573005 991.95054 217.451813 987.736395 210.668117 976.897743 201.221919 959.434585 194.382435 950.20834 191.241086 938.516741 191.797871 924.359787 192.633048 903.124356 197.509564 892.596967 201.221919 891.572439 204.934273 890.547912 211.765005 885.687594 218.891085 895.417304 223.641805 901.903777 223.010363 909.903668 216.996759 919.416979 211.805205 930.84461 211.270025 938.634152 215.391217 942.785604 219.512409 946.937057 224.154288 955.817393 229.316853 969.426613 231.14582 973.035281 230.309667 973.231057 233.116171 972.133114 235.922675 971.03517 236.713786 969.470333 238.032887 964.452459 239.351988 959.434585 238.178627 952.003603 234.893179 945.44921 231.60773 938.894817 234.915858 930.314748 236.824423 928.09164 238.732989 925.868531 242.36219 921.985721 251.75096 927.668465 258.01014 931.456962 262.884344 938.246858 261.13973 950.240236L256.086826 972.133114C252.362165 1001.94999 249.015713 1020.0134 246.047471 1026.32335 241.595106 1035.78826 240.759109 1055.43246 247.614453 1059.36724 254.469798 1063.30202 254.559222 1056.43142 256.086826 1056.43142 257.614429 1056.43142 269.431612 1050.96397 268.883578 1059.36724 268.335544 1067.77051 264.093205 1081.98685 257.466755 1092.32947 253.049121 1099.22454 251.143856 1106.55929 251.75096 1114.3337 248.279532 1139.68237 240.077075 1160.1083 227.143587 1175.61149 224.166594 1178.99963 223.402245 1182.66384 224.850542 1186.60412 227.022987 1192.51454 233.463204 1200.15065 236.824423 1199.2845 243.002656 1198.9089 246.480373 1195.28923 247.257575 1188.4255 248.423377 1178.12991 252.315402 1178.01443 253.59442 1178.12991 254.873439 1178.2454 268.38723 1175.14707 264.76348 1194.03071 261.13973 1212.91434 258.861452 1207.43205 258.856529 1220.00602 258.851607 1232.57999 255.419832 1244.52786 258.851607 1247.72847 262.283381 1250.92909 260.557239 1264.26114 271.622926 1260.80068 279.000051 1258.49371 283.891882 1251.6715 286.298417 1240.33406 288.908961 1206.6242 288.622365 1188.09499 285.438628 1184.74644 280.663022 1179.72362 286.236886 1151.31567 294.543536 1137.89948 300.081302 1128.95535 300.081302 1105.57903 294.543536 1067.77051 281.126554 1049.80966 274.49901 1037.5761 274.660904 1031.06983 274.903745 1021.31042 269.903347 1010.98266 279.412718 1002.96627 285.752298 997.62201 290.795904 1000.21 294.543536 1010.73024 297.066023 1021.14434 298.774389 1027.92421 299.668636 1031.06983 301.010006 1035.78826 305.827453 1049.46265 309.422488 1048.44225 313.017524 1047.42184 316.15149 1040.29387 316.15149 1034.54266 316.15149 1028.79145 316.576462 1002.02011 322.654878 991.95054 326.707156 985.237494 325.450562 973.064977 318.885095 955.432989 304.392282 935.188265 297.181974 923.182928 297.25417 919.416979 297.362464 913.768056 292.892871 894.522286 289.16575 893.993524 285.438628 893.464763 265.946511 885.653773 264.76348 883.453762 263.580449 881.253751 251.102015 875.075241 253.59442 862.944244 256.086826 850.813247 261.13973 857.154056 266.867011 859.365823 274.437205 861.666747 279.055566 862.18396 280.722092 860.917462 283.22188 859.017714 282.995447 844.575344 279.412718 839.652334 275.829988 834.729324 262.568063 804.951216 279.412718 793.490039 290.642487 785.849254 297.900106 787.233164 301.185574 797.641767 303.72611 807.38385 304.108421 815.201988 302.332507 821.096182 299.668636 829.937473 293.322766 834.162617 297.25417 843.23818 301.185574 852.313742 306.636377 859.30148 309.422488 864.792847 312.2086 870.284215 317.197512 880.362032 316.15149 892.513652 315.105467 904.665271 320.943504 916.811941 321.799191 917.60962 322.654878 918.4073 328.036767 934.344391 333.770611 932.67974 339.504455 931.015089 348.063791 924.809358 347.867713 917.60962 347.736994 912.809795 347.376014 897.912836 346.784772 872.918743 338.327988 848.848814 332.528237 835.872637 329.385521 833.990212 324.671446 831.166576 321.309406 809.550865 324.671446 804.37791 328.033485 799.204954 329.408492 796.530625 335.863477 799.204954 342.318461 801.879284 347.867713 814.93417 347.867713 819.329244 347.867713 823.724317 352.26593 831.806699 355.166899 828.904697 358.067868 826.002694 365.744443 812.824073 362.796711 806.014514 359.848978 799.204954 353.797635 787.122627 356.188309 776.559767 357.782092 769.517861 362.104558 762.502351 369.155707 755.513238 373.868688 736.000476 374.676518 724.826639 371.579198 721.991729 366.933217 717.739363 370.498718 708.597809 379.314022 710.182444 388.129325 711.767079 398.310611 714.892629 396.438436 726.424748 395.190319 734.112827 394.566261 742.808385 394.566261 752.511423 392.734559 763.727329 389.734594 771.743444 385.566365 776.559767 379.314022 783.784252 382.023835 796.078579 383.7951 797.641767 385.566365 799.204954 393.810663 806.014514 396.438436 806.014514 399.066208 806.014514 403.607177 809.790911 400.022806 812.925536 397.633226 815.015285 392.285521 819.329244 387.741271 828.904697 386.582853 831.43989 383.7951 833.083921 383.7951 836.408823 383.7951 841.396175 392.854065 844.741149 396.438436 843.23818 400.022806 841.73521 419.10718 844.277555 421.245168 839.652334 423.383155 835.027113 462.953982 806.290031 468.344895 789.674871 473.735808 773.059711 467.809988 742.768515 469.858551 742.768515 471.907115 742.768515 469.058652 735.809649 480.760157 737.828182 488.561161 739.173871 491.361493 742.159188 489.161154 746.784134 488.374107 755.644673 489.87409 759.534357 493.661102 758.453186 499.341619 756.83143 503.592983 745.101336 506.64983 743.934925 509.706677 742.768515 517.730285 737.826532 520.332625 743.934925 522.934965 750.043319 526.361817 754.680913 521.678097 760.869322 516.994377 767.05773 505.391321 789.121362 494.661181 796.089303 483.931041 803.057243 450.540361 833.165311 450.648656 836.408823 450.75695 839.652334 443.05002 852.255587 460.731492 857.154056 472.519141 860.419703 480.975651 855.781077 486.101025 843.23818 491.432048 839.441984 495.235468 838.757866 497.511285 841.185825 500.92501 844.827764 504.338735 851.365106 500.92501 858.078977 497.511285 864.792847 489.710828 864.934112 490.898782 868.926427 492.086735 872.918743 494.09756 874.939957 497.511285 874.491211 499.787102 874.192046 502.220437 873.117475 504.811292 871.267497 513.368166 869.558302 517.082435 871.579309 515.954098 877.330521 514.261592 885.957337 513.979371 887.694579 506.64983 890.104115 499.320289 892.513652 488.037192 892.513652 481.64702 892.513652 475.256848 892.513652 444.113271 881.617532 438.491823 871.267497 434.744191 864.367473 424.177859 862.209257 406.792828 864.792847 388.088578 866.159434 378.387779 871.605156 377.69043 881.130015 376.644408 895.417304 377.518965 904.38398 371.579198 922.144927 365.639431 939.905874 361.159993 945.20174 364.274269 952.318162 367.388544 959.434585 373.717186 962.81173 377.69043 956.525983 381.663675 950.240236 390.14015 933.562384 388.94071 928.961086 387.741271 924.359787 391.561099 915.802262 399.176964 917.60962 406.792828 919.416979 409.576479 925.542695 409.046494 930.704102 408.516509 935.865508 404.649097 942.107536 409.576479 941.206744 414.50386 940.305951 418.842187 929.592135 419.011192 925.868531 419.180196 922.144927 428.830677 916.689031 431.744772 919.416979 434.658868 922.144927 443.748188 924.0422 442.090961 930.704102 440.433733 937.366004 432.538929 946.373925 428.681362 949.346044 424.823795 952.318162 373.559667 981.065969 362.796711 999.389499 352.033754 1017.71303 346.322881 1015.14511 341.73597 1035.78826 337.149059 1056.43142 340.81547 1069.39226 341.73597 1070.26583 342.65647 1071.1394 348.92194 1077.84997 352.044419 1076.46002 355.166899 1075.07006 365.751827 1064.42058 364.274269 1056.43142 362.796711 1048.44225 364.280832 1033.14858 369.155707 1033.02732 374.030582 1032.90606 385.566365 1029.048 385.566365 1033.02732 385.566365 1037.00664 389.370605 1040.77149 386.582853 1046.06241 383.7951 1051.35332 383.391458 1054.06477 385.566365 1054.06477 387.741271 1054.06477 394.566261 1053.49559 396.438436 1056.43142 398.310611 1059.36724 402.599713 1060.44621 400.022806 1066.46469 397.445899 1072.48317 396.829771 1075.64996 392.285521 1077.82853 387.741271 1080.00709 339.571729 1101.0132 339.349398 1104.46376 339.127067 1107.91432 331.012393 1112.53624 331.538276 1124.48329 332.064159 1136.43033 329.776036 1140.62743 327.223741 1146.80099 324.671446 1152.97455 318.885095 1160.23368 318.885095 1167.92258 318.885095 1175.61149 318.976981 1185.77427 322.654878 1189.35187 326.332776 1192.92946 327.232765 1190.27823 329.385521 1189.35187 331.538276 1188.4255 337.850509 1170.99287 337.764366 1164.97439 337.678223 1158.95591 343.43832 1147.84944 346.784772 1147.79417 350.131224 1147.7389 353.275855 1143.3595 356.188309 1145.08025 359.100764 1146.80099 365.751827 1152.3468 364.274269 1161.68716 362.796711 1171.02751 357.517373 1191.62447 349.626672 1201.22879 341.73597 1210.83312 311.042505 1262.83379 309.422488 1268.71314 307.802471 1274.59248 304.662471 1285.98492 311.773783 1294.0673 318.885095 1302.14968 326.226943 1301.55823 329.385521 1302.14968 332.544098 1302.74113 365.389206 1284.58671 369.155707 1268.71314 372.922209 1252.83956 361.997631 1249.85012 361.799092 1244.26306 361.600553 1238.67601 364.365334 1227.7172 361.600553 1223.86161 358.835772 1220.00602 354.145489 1219.07883 355.166899 1213.33999 356.188309 1207.60116 360.943405 1201.64537 364.274269 1205.5488 367.605133 1209.45223 373.584279 1209.12392 374.5458 1215.71653 375.50732 1222.30914 375.304679 1224.78467 383.7951 1227.4491 392.285521 1230.11353 399.176964 1219.94168 399.176964 1217.82911 399.176964 1215.71653 400.59135 1177.37595 396.438436 1172.64927 392.285521 1167.92258 384.201203 1133.55143 390.319819 1124.48329 396.438436 1115.41515 395.599977 1112.07512 400.022806 1114.3337 404.445636 1116.59228 406.792828 1116.60631 406.792828 1119.74011 406.792828 1122.87391 409.57894 1135.30517 406.792828 1140.19271 404.006716 1145.08025 411.806353 1157.80765 415.956806 1156.36077 420.107259 1154.91389 428.189116 1138.39525 427.467976 1133.09526 426.746836 1127.79527 433.690784 1084.96392 427.467976 1074.01913 421.245168 1063.07434 430.315618 1024.90782 431.744772 1021.31042 433.173926 1017.71303 433.173926 1006.7204 440.162998 1007.73337 447.152069 1008.74635 456.940378 1005.22815 455.821339 1014.26329 454.7023 1023.29843 455.111685 1031.76275 450.648656 1037.92641 446.185626 1044.09007 445.079714 1051.3426 449.594429 1051.28733 454.109144 1051.23206 461.553543 1044.20061 461.60769 1041.06351 461.661837 1037.92641 465.400445 1033.65012 469.858551 1035.78826 474.316658 1037.92641 484.692381 1045.37444 481.64702 1050.37912 478.601659 1055.38379 476.58263 1062.70314 466.201985 1070.26583 459.281555 1075.30763 455.821339 1084.80554 455.821339 1098.75957 455.199469 1113.94765 453.123832 1122.84613 449.594429 1125.45502 444.300324 1129.36835 447.476131 1145.15119 452.951546 1143.71256 458.426961 1142.27393 466.075642 1130.62385 467.210269 1127.55357 468.344895 1124.48329 476.33762 1098.16246 474.575088 1091.0055 472.812555 1083.84854 483.16888 1076.17955 487.033831 1078.72849 490.898782 1081.27744 496.867263 1083.78266 494.661181 1092.32947 492.455099 1100.87627 496.779479 1122.7477 490.898782 1131.4702 485.018084 1140.19271 435.92476 1209.67743 427.467976 1215.71653 419.011192 1221.75564 423.19118 1237.19366 427.467976 1236.90742 431.744772 1236.62118 442.090961 1231.48535 447.006036 1228.41341 451.921111 1225.34148 464.867178 1226.19773 464.867178 1231.48535 464.867178 1235.01042 464.165728 1240.4248 462.762827 1247.72847 458.738599 1256.95279 447.709948 1260.80068 443.512731 1260.80068 439.315514 1260.80068 432.885689 1265.96127 424.223255 1276.28243 389.532499 1309.5243 363.30345 1328.75632 345.536108 1333.97849 327.768766 1339.20067 323.87553 1360 320.871307 1360 318.868492 1360 300.86706 1360 266.867011 1360 265.261937 1358.5199 254.840539 1319.66591 248.626311 1306.77641 236.001502 1280.59014 221.908381 1267.99606 216.878017 1265.77413 205.618377 1260.80068 204.030884 1270.95466 180.714837 1270.95466 157.39879 1270.95466 163.282285 1276.65732 148.593667 1275.71584 126.560741 1274.3036 110.3035 1263.15424 104.636109 1254.54227 100.857848 1248.80096 100.857848 1243.63708 104.636109 1239.05063 107.28111 1236.91138 111.262286 1236.06064 116.579635 1236.49838 121.896985 1236.93613 126.565117 1240.13785 130.584031 1246.10353 134.602945 1252.06922 145.434542 1250.24619 148.593667 1244.00333 151.752792 1237.76048 150.17323 1232.35683 143.85498 1227.79238 123.14893 1219.78094 112.800828 1208.86034 112.810672 1195.0306 112.820517 1181.20086 126.613993 1169.0719 133.773784 1184.1782 140.933575 1199.2845 187.35207 1232.36249 194.940259 1240.9908 199.999051 1246.743 204.842751 1246.62586 209.471358 1240.63939 214.511956 1234.6671 213.886803 1227.1836 207.595901 1218.18888 201.304998 1209.19415 190.644046 1195.54699 175.613044 1177.24738 160.118237 1159.25684 140.440434 1148.73055 116.579635 1145.66851 92.7188359 1142.60648 78.6701381 1130.32425 74.4335418 1108.82183 74.1053779 1101.78267 77.3848294 1098.22955 84.2718964 1098.16246 91.1589634 1098.09536 103.033513 1102.60512 112.810672 1118.18611 115.812279 1123.10472 121.736731 1125.06688 130.584031 1124.0726 139.43133 1123.07832 137.599019 1105.23655 128.731545 1098.16246 112.081602 1082.28696 103.104677 1068.90981 101.800773 1058.03101 99.8449156 1041.71282 96.8619055 1024.77925 84.2718964 1018.89935 75.878557 1014.97942 70.8369395 1014.26329 67.8423693 1013.01945 52.3191216 1006.50933 43.2246053 994.134717 40.5588203 975.895602 37.8930353 957.656487 47.3882476 956.670297 54.0742517 962.672436 60.7602558 968.674575 61.5109932 980.134494 67.8423693 981.438938 74.1737454 982.743382 79.6502544 979.882074 84.2718964 972.855016 88.3050311 965.72457 85.8662261 954.700591 76.9554816 939.783078 68.0447371 924.865565 54.0742517 903.317496 43.0824009 900.001394 31.1591115 896.598401 20.4784695 897.703769 11.0404749 903.317496 1.60248032 908.931224-4.61204978 895.417304 4.34264913 884.392613 11.0404749 877.696066 17.8124735 878.8054 21.9289541 877.696066 26.0454346 876.586732 26.5733684 868.926427 21.9289541 865.111373 16.6365646 859.365823 8.98616872 855.724548 7.12876088 849.86225 4.34264913 841.068803 7.03359334 832.715854 14.4812737 833.631494 21.9289541 834.547135 28.4544938 836.036906 43.0824009 861.338275 57.710308 886.639644 51.4128422 891.590701 67.8423693 897.454099 78.7953874 901.36303 86.8242656 874.491211 79.4281968 861.338275 65.4341306 840.253959 49.5122261 827.837938 43.0824009 826.380613 33.437663 824.194625 33.047148 806.614331 33.437663 803.705729 33.8281781 800.797128 34.2285381 792.746092 40.5588203 796.727065 46.8891025 800.708038 47.0761559 811.915146 57.4592626 812.614662 64.3813337 813.081006 67.8423693 803.581994 67.8423693 784.117626 67.7198548 773.381812 64.9397594 760.619491 59.5020831 745.830662 54.0644068 731.041834 59.0415597 726.796342 74.4335418 733.094188 82.1307011 736.268978 85.9231079 747.591001 86.1473532 756.526331 86.4837213 769.929325 86.1719655 793.219585 84.2718964 817.653158 83.0051836 833.942207 87.1843513 836.851358 96.8093993 826.380613 112.376402 813.744227 121.588511 803.859711 124.445725 796.727065 127.302938 789.59442 125.874332 782.524466 120.159904 775.517206 117.773058 773.013906 116.579635 769.571318 116.579635 765.189443 116.579635 758.61663 128.470496 766.065543 129.536032 760.029535 130.176652 756.364822 130.555203 754.213136 130.668197 753.57788 132.901085 741.024508 130.503131 735.115562 127.903416 732.03137 123.70784 727.053916 135.449546 721.756401 140.070094 724.077673 144.690642 726.398944 153.629827 730.889798 153.277051 740.971694 152.924275 751.053591 156.05824 767.705046 148.064167 781.355511 142.734785 790.455821 136.936128 800.525115 130.668197 811.563392 124.400266 822.60167 153.851338 814.177779 157.323312 811.563392 160.795287 808.949005 162.531274 801.043702 162.531274 787.847483 164.282575 782.130368 167.122834 779.271811 171.05205 779.271811 174.981266 779.271811 178.202195 780.900166 180.714837 784.156875 183.227479 787.413585 179.7473 797.721001 182.544351 798.944054 186.739927 800.778634 193.275311 792.711101 197.121393 797.109474 200.967474 801.507847 204.352485 807.498279 197.121393 814.551184 189.8903 821.60409 175.603684 826.602991 168.223277 826.814165 160.84287 827.02534 109.779332 840.500694 102.444458 852.646771 95.1095844 864.792847 101.240097 889.238287 97.6532651 901.414929 94.0664333 913.59157 95.8598492 920.401954 103.033513 921.846081 110.948827 920.93429 118.401429 913.540426 125.391321 899.664488 135.876159 878.850582 125.735893 878.850582 125.735893 872.374076 125.420153 866.311422 127.751211 862.689349 133.289524 862.052526ZM1596.28952 152.052526C1601.82784 151.415702 1606.25593 154.159598 1609.57381 160.284215 1612.43198 163.229112 1614.8286 161.398656 1616.76367 154.792847 1618.69875 148.187039 1622.7824 145.640775 1629.01465 147.154056 1636.00563 149.324234 1637.44914 154.579129 1633.34518 162.918743 1627.18923 175.428163 1589.09207 222.967631 1572.52389 231.206744 1571.19538 231.81882 1570.33477 233.881073 1569.94206 237.393502 1569.35301 242.662146 1567.00335 267.160887 1572.52389 284.949881 1576.20425 296.80921 1581.79507 296.424531 1589.29635 283.795844 1592.37781 277.174221 1586.80834 267.662426 1592.53603 259.426613 1598.26372 251.1908 1592.61245 251.1908 1605.53636 240.240236 1614.15231 232.939861 1618.80266 236.004644 1619.48743 249.434585 1620.50419 259.07383 1619.59627 266.932664 1616.76367 273.011086 1613.93107 279.089508 1605.80245 291.855953 1592.37781 311.310423 1588.28232 319.92734 1588.28232 328.178002 1592.37781 336.062408 1598.52104 347.889016 1607.90243 366.804 1611.47613 368.728494 1615.04984 370.652989 1624.20233 370.535028 1624.83815 364.019134 1625.47396 357.503239 1624.15064 343.443623 1621.81904 340.379115 1619.48743 337.314608 1618.28143 329.69582 1619.48743 327.006642 1620.69343 324.317465 1630.56584 321.416287 1633.34518 325.788263 1636.12452 330.16024 1643.03894 333.238771 1641.68772 344.064774 1640.33651 354.890777 1639.8738 379.127199 1635.20566 387.571712 1632.09358 393.201388 1633.22082 401.683297 1638.58739 413.017439 1650.52818 435.983788 1658.44623 448.281964 1662.34154 449.911969 1666.23685 451.541974 1671.08082 450.726972 1676.87346 447.466962 1683.55761 435.766564 1686.12413 424.772006 1684.573 414.483288 1683.02188 404.194571 1679.87802 402.638392 1677.78318 395.835432L1671.75492 384.616916C1667.50192 377.666849 1663.76413 373.797787 1660.54156 373.009732 1655.70771 371.827648 1650.80083 358.319891 1657.73002 357.770507 1664.6592 357.221123 1673.64022 355.028536 1678.39122 364.019134 1681.55855 370.012866 1684.56617 371.282663 1687.41408 367.828527 1690.30576 358.594033 1690.30576 351.461663 1687.41408 346.431415 1684.52241 341.401168 1672.16841 327.90276 1650.35207 305.936191 1641.78152 300.812455 1637.40026 296.033803 1637.20828 291.600234 1636.92032 284.949881 1630.30946 274.066134 1642.99217 268.374316 1651.44732 264.579771 1659.00302 271.993708 1665.65928 290.616127 1670.97881 303.198619 1676.38942 308.897587 1681.89109 307.713029 1687.39275 306.528471 1690.14359 304.200874 1690.14359 300.73024 1690.55106 292.424585 1688.6942 286.164685 1684.573 281.95054 1680.45181 277.736395 1673.66812 266.897743 1664.22192 249.434585 1657.38244 240.20834 1654.24109 228.516741 1654.79787 214.359787 1655.63305 193.124356 1660.50956 182.596967 1664.22192 181.572439 1667.93427 180.547912 1674.76501 175.687594 1681.89109 185.417304 1686.6418 191.903777 1686.01036 199.903668 1679.99676 209.416979 1674.80521 220.84461 1674.27002 228.634152 1678.39122 232.785604 1682.51241 236.937057 1687.15429 245.817393 1692.31685 259.426613 1694.14582 263.035281 1693.30967 263.231057 1696.11617 262.133114 1698.92268 261.03517 1699.71379 259.470333 1701.03289 254.452459 1702.35199 249.434585 1701.17863 242.003603 1697.89318 235.44921 1694.60773 228.894817 1697.91586 220.314748 1699.82442 218.09164 1701.73299 215.868531 1705.36219 211.985721 1714.75096 217.668465 1721.01014 221.456962 1725.88434 228.246858 1724.13973 240.240236L1719.08683 262.133114C1715.36216 291.949992 1712.01571 310.013403 1709.04747 316.323347 1704.59511 325.788263 1703.75911 345.43246 1710.61445 349.367239 1717.4698 353.302017 1717.55922 346.431415 1719.08683 346.431415 1720.61443 346.431415 1732.43161 340.96397 1731.88358 349.367239 1731.33554 357.770507 1727.0932 371.986854 1720.46675 382.329465 1716.04912 389.224539 1714.14386 396.559285 1714.75096 404.333704 1711.27953 429.682368 1703.07707 450.108296 1690.14359 465.611488 1687.16659 468.999633 1686.40225 472.663844 1687.85054 476.604122 1690.02299 482.514539 1696.4632 490.150649 1699.82442 489.284503 1706.00266 488.908898 1709.48037 485.289231 1710.25758 478.425503 1711.42338 468.129912 1715.3154 468.014426 1716.59442 468.129912 1717.87344 468.245398 1731.38723 465.147069 1727.76348 484.030707 1724.13973 502.914345 1721.86145 497.432052 1721.85653 510.00602 1721.85161 522.579989 1718.41983 534.527858 1721.85161 537.728474 1725.28338 540.929091 1723.55724 554.261144 1734.62293 550.800683 1742.00005 548.49371 1746.89188 541.671502 1749.29842 530.33406 1751.90896 496.624198 1751.62236 478.094993 1748.43863 474.746444 1743.66302 469.723621 1749.23689 441.315674 1757.54354 427.899481 1763.0813 418.955353 1763.0813 395.579028 1757.54354 357.770507 1744.12655 339.809659 1737.49901 327.576099 1737.6609 321.069829 1737.90375 311.310423 1732.90335 300.98266 1742.41272 292.96627 1748.7523 287.62201 1753.7959 290.21 1757.54354 300.73024 1760.06602 311.144343 1761.77439 317.924205 1762.66864 321.069829 1764.01001 325.788263 1768.82745 339.46265 1772.42249 338.442247 1776.01752 337.421845 1779.15149 330.293874 1779.15149 324.542663 1779.15149 318.791452 1779.57646 292.020109 1785.65488 281.95054 1789.70716 275.237494 1788.45056 263.064977 1781.8851 245.432989 1767.39228 225.188265 1760.18197 213.182928 1760.25417 209.416979 1760.36246 203.768056 1755.89287 184.522286 1752.16575 183.993524 1748.43863 183.464763 1728.94651 175.653773 1727.76348 173.453762 1726.58045 171.253751 1714.10202 165.075241 1716.59442 152.944244 1719.08683 140.813247 1724.13973 147.154056 1729.86701 149.365823 1737.43721 151.666747 1742.05557 152.18396 1743.72209 150.917462 1746.22188 149.017714 1745.99545 134.575344 1742.41272 129.652334 1738.82999 124.729324 1725.56806 94.9512161 1742.41272 83.490039 1753.64249 75.8492543 1760.90011 77.2331636 1764.18557 87.6417667 1766.72611 97.3838496 1767.10842 105.201988 1765.33251 111.096182 1762.66864 119.937473 1756.32277 124.162617 1760.25417 133.23818 1764.18557 142.313742 1769.63638 149.30148 1772.42249 154.792847 1775.2086 160.284215 1780.19751 170.362032 1779.15149 182.513652 1778.10547 194.665271 1783.9435 206.811941 1784.79919 207.60962 1785.65488 208.4073 1791.03677 224.344391 1796.77061 222.67974 1802.50446 221.015089 1811.06379 214.809358 1810.86771 207.60962 1810.73699 202.809795 1810.37601 187.912836 1809.78477 162.918743 1801.32799 138.848814 1795.52824 125.872637 1792.38552 123.990212 1787.67145 121.166576 1784.30941 99.550865 1787.67145 94.3779097 1791.03349 89.2049544 1792.40849 86.5306248 1798.86348 89.2049544 1805.31846 91.879284 1810.86771 104.93417 1810.86771 109.329244 1810.86771 113.724317 1815.26593 121.806699 1818.1669 118.904697 1821.06787 116.002694 1828.74444 102.824073 1825.79671 96.0145137 1822.84898 89.2049544 1816.79764 77.1226268 1819.18831 66.5597672 1820.78209 59.5178607 1825.10456 52.5023511 1832.15571 45.5132384 1836.86869 26.0004759 1837.67652 14.8266394 1834.5792 11.991729 1829.93322 7.73936344 1833.49872-1.40219147 1842.31402.182443703 1851.12933 1.76707887 1861.31061 4.89262946 1859.43844 16.424748 1858.19032 24.112827 1857.56626 32.8083853 1857.56626 42.511423 1855.73456 53.7273294 1852.73459 61.7434441 1848.56636 66.5597672 1842.31402 73.7842517 1845.02384 86.0785789 1846.7951 87.6417667 1848.56636 89.2049544 1856.81066 96.0145137 1859.43844 96.0145137 1862.06621 96.0145137 1866.60718 99.7909113 1863.02281 102.925536 1860.63323 105.015285 1855.28552 109.329244 1850.74127 118.904697 1849.58285 121.43989 1846.7951 123.083921 1846.7951 126.408823 1846.7951 131.396175 1855.85407 134.741149 1859.43844 133.23818 1863.02281 131.73521 1882.10718 134.277555 1884.24517 129.652334 1886.38316 125.027113 1925.95398 96.2900307 1931.3449 79.6748711 1936.73581 63.0597114 1930.80999 32.7685151 1932.85855 32.7685151 1934.90711 32.7685151 1932.05865 25.8096487 1943.76016 27.8281819 1951.56116 29.1738707 1954.36149 32.1591881 1952.16115 36.7841341 1951.37411 45.6446726 1952.87409 49.5343567 1956.6611 48.4531862 1962.34162 46.8314305 1966.59298 35.1013357 1969.64983 33.9349254 1972.70668 32.7685151 1980.73028 27.8265321 1983.33262 33.9349254 1985.93496 40.0433186 1989.36182 44.6809131 1984.6781 50.8693218 1979.99438 57.0577304 1968.39132 79.1213624 1957.66118 86.0893026 1946.93104 93.0572429 1913.54036 123.165311 1913.64866 126.408823 1913.75695 129.652334 1906.05002 142.255587 1923.73149 147.154056 1935.51914 150.419703 1943.97565 145.781077 1949.10103 133.23818 1954.43205 129.441984 1958.23547 128.757866 1960.51128 131.185825 1963.92501 134.827764 1967.33874 141.365106 1963.92501 148.078977 1960.51128 154.792847 1952.71083 154.934112 1953.89878 158.926427 1955.08674 162.918743 1957.09756 164.939957 1960.51128 164.491211 1962.7871 164.192046 1965.22044 163.117475 1967.81129 161.267497 1976.36817 159.558302 1980.08243 161.579309 1978.9541 167.330521 1977.26159 175.957337 1976.97937 177.694579 1969.64983 180.104115 1962.32029 182.513652 1951.03719 182.513652 1944.64702 182.513652 1938.25685 182.513652 1907.11327 171.617532 1901.49182 161.267497 1897.74419 154.367473 1887.17786 152.209257 1869.79283 154.792847 1851.08858 156.159434 1841.38778 161.605156 1840.69043 171.130015 1839.64441 185.417304 1840.51896 194.38398 1834.5792 212.144927 1828.63943 229.905874 1824.15999 235.20174 1827.27427 242.318162 1830.38854 249.434585 1836.71719 252.81173 1840.69043 246.525983 1844.66368 240.240236 1853.14015 223.562384 1851.94071 218.961086 1850.74127 214.359787 1854.5611 205.802262 1862.17696 207.60962 1869.79283 209.416979 1872.57648 215.542695 1872.04649 220.704102 1871.51651 225.865508 1867.6491 232.107536 1872.57648 231.206744 1877.50386 230.305951 1881.84219 219.592135 1882.01119 215.868531 1882.1802 212.144927 1891.83068 206.689031 1894.74477 209.416979 1897.65887 212.144927 1906.74819 214.0422 1905.09096 220.704102 1903.43373 227.366004 1895.53893 236.373925 1891.68136 239.346044 1887.8238 242.318162 1836.55967 271.065969 1825.79671 289.389499 1815.03375 307.713029 1809.32288 305.145111 1804.73597 325.788263 1800.14906 346.431415 1803.81547 359.392263 1804.73597 360.265833 1805.65647 361.139404 1811.92194 367.849975 1815.04442 366.460016 1818.1669 365.070058 1828.75183 354.420583 1827.27427 346.431415 1825.79671 338.442247 1827.28083 323.14858 1832.15571 323.027319 1837.03058 322.906059 1848.56636 319.047996 1848.56636 323.027319 1848.56636 327.006642 1852.37061 330.771491 1849.58285 336.062408 1846.7951 341.353324 1846.39146 344.064774 1848.56636 344.064774 1850.74127 344.064774 1857.56626 343.495592 1859.43844 346.431415 1861.31061 349.367239 1865.59971 350.446209 1863.02281 356.464689 1860.4459 362.483168 1859.82977 365.649963 1855.28552 367.828527 1850.74127 370.007091 1802.57173 391.0132 1802.3494 394.463761 1802.12707 397.914323 1794.01239 402.536244 1794.53828 414.483288 1795.06416 426.430332 1792.77604 430.627429 1790.22374 436.80099 1787.67145 442.97455 1781.8851 450.233681 1781.8851 457.922585 1781.8851 465.611488 1781.97698 475.774271 1785.65488 479.351867 1789.33278 482.929464 1790.23277 480.278232 1792.38552 479.351867 1794.53828 478.425503 1800.85051 460.992867 1800.76437 454.974388 1800.67822 448.955909 1806.43832 437.849439 1809.78477 437.794171 1813.13122 437.738902 1816.27585 433.359502 1819.18831 435.080246 1822.10076 436.80099 1828.75183 442.3468 1827.27427 451.687157 1825.79671 461.027513 1820.51737 481.62447 1812.62667 491.228795 1804.73597 500.833119 1774.04251 552.833793 1772.42249 558.713136 1770.80247 564.592478 1767.66247 575.984917 1774.77378 584.067298 1781.8851 592.14968 1789.22694 591.558226 1792.38552 592.14968 1795.5441 592.741134 1828.38921 574.586709 1832.15571 558.713136 1835.92221 542.839562 1824.99763 539.85012 1824.79909 534.263064 1824.60055 528.676009 1827.36533 517.717197 1824.60055 513.861608 1821.83577 510.00602 1817.14549 509.078831 1818.1669 503.339994 1819.18831 497.601156 1823.9434 491.64537 1827.27427 495.548802 1830.60513 499.452235 1836.58428 499.123924 1837.5458 505.716534 1838.50732 512.309144 1838.30468 514.784673 1846.7951 517.449104 1855.28552 520.113535 1862.17696 509.941678 1862.17696 507.829106 1862.17696 505.716534 1863.59135 467.375952 1859.43844 462.649268 1855.28552 457.922585 1847.2012 423.551427 1853.31982 414.483288 1859.43844 405.41515 1858.59998 402.075125 1863.02281 404.333704 1867.44564 406.592284 1869.79283 406.606307 1869.79283 409.740106 1869.79283 412.873906 1872.57894 425.305167 1869.79283 430.192706 1867.00672 435.080246 1874.80635 447.807646 1878.95681 446.36077 1883.10726 444.913893 1891.18912 428.395247 1890.46798 423.095257 1889.74684 417.795267 1896.69078 374.963922 1890.46798 364.019134 1884.24517 353.074345 1893.31562 314.907817 1894.74477 311.310423 1896.17393 307.713029 1896.17393 296.720395 1903.163 297.733374 1910.15207 298.746353 1919.94038 295.228149 1918.82134 304.263292 1917.7023 313.298435 1918.11168 321.762746 1913.64866 327.926407 1909.18563 334.090069 1908.07971 341.3426 1912.59443 341.287332 1917.10914 341.232063 1924.55354 334.200606 1924.60769 331.063506 1924.66184 327.926407 1928.40044 323.650119 1932.85855 325.788263 1937.31666 327.926407 1947.69238 335.37444 1944.64702 340.379115 1941.60166 345.383791 1939.58263 352.703139 1929.20198 360.265833 1922.28155 365.307629 1918.82134 374.805541 1918.82134 388.75957 1918.19947 403.94765 1916.12383 412.846134 1912.59443 415.455022 1907.30032 419.368353 1910.47613 435.151187 1915.95155 433.71256 1921.42696 432.273932 1929.07564 420.623853 1930.21027 417.55357 1931.3449 414.483288 1939.33762 388.162455 1937.57509 381.005499 1935.81255 373.848542 1946.16888 366.17955 1950.03383 368.728494 1953.89878 371.277439 1959.86726 373.782664 1957.66118 382.329465 1955.4551 390.876266 1959.77948 412.747696 1953.89878 421.470201 1948.01808 430.192706 1898.92476 499.677433 1890.46798 505.716534 1882.01119 511.755636 1886.19118 527.193661 1890.46798 526.907421 1894.74477 526.62118 1905.09096 521.485345 1910.00604 518.413413 1914.92111 515.341481 1927.86718 516.197729 1927.86718 521.485345 1927.86718 525.010423 1927.16573 530.424799 1925.76283 537.728474 1921.7386 546.952791 1910.70995 550.800683 1906.51273 550.800683 1902.31551 550.800683 1895.88569 555.961265 1887.22326 566.282429 1852.5325 599.524297 1826.30345 618.756318 1808.53611 623.978492 1790.76877 629.200667 1786.87553 650 1783.87131 650 1781.86849 650 1763.86706 650 1729.86701 650 1728.26194 648.519896 1717.84054 609.665909 1711.62631 596.77641 1699.0015 570.590138 1684.90838 557.996065 1679.87802 555.774126 1668.61838 550.800683 1667.03088 560.954664 1643.71484 560.954664 1620.39879 560.954664 1626.28228 566.657323 1611.59367 565.715836 1589.56074 564.303605 1573.3035 553.15424 1567.63611 544.542272 1563.85785 538.80096 1563.85785 533.637078 1567.63611 529.050628 1570.28111 526.911384 1574.26229 526.060636 1579.57964 526.498383 1584.89698 526.936131 1589.56512 530.137848 1593.58403 536.103533 1597.60295 542.069218 1608.43454 540.246187 1611.59367 534.003334 1614.75279 527.760482 1613.17323 522.35683 1606.85498 517.792376 1586.14893 509.780936 1575.80083 498.860344 1575.81067 485.030601 1575.82052 471.200858 1589.61399 459.0719 1596.77378 474.178201 1603.93358 489.284503 1650.35207 522.362487 1657.94026 530.990795 1662.99905 536.743001 1667.84275 536.625865 1672.47136 530.639387 1677.51196 524.667103 1676.8868 517.183599 1670.5959 508.188877 1664.305 499.194154 1653.64405 485.546989 1638.61304 467.247381 1623.11824 449.256837 1603.44043 438.730547 1579.57964 435.668514 1555.71884 432.606481 1541.67014 420.324252 1537.43354 398.821828 1537.10538 391.782672 1540.38483 388.229547 1547.2719 388.162455 1554.15896 388.095363 1566.03351 392.605119 1575.81067 408.186106 1578.81228 413.104717 1584.73673 415.066882 1593.58403 414.072601 1602.43133 413.07832 1600.59902 395.236553 1591.73155 388.162455 1575.0816 372.286957 1566.10468 358.909809 1564.80077 348.031013 1562.84492 331.712817 1559.86191 314.779246 1547.2719 308.89935 1538.87856 304.97942 1533.83694 304.263292 1530.84237 303.019455 1515.31912 296.509335 1506.22461 284.134717 1503.55882 265.895602 1500.89304 247.656487 1510.38825 246.670297 1517.07425 252.672436 1523.76026 258.674575 1524.51099 270.134494 1530.84237 271.438938 1537.17375 272.743382 1542.65025 269.882074 1547.2719 262.855016 1551.30503 255.72457 1548.86623 244.700591 1539.95548 229.783078 1531.04474 214.865565 1517.07425 193.317496 1506.0824 190.001394 1494.15911 186.598401 1483.47847 187.703769 1474.04047 193.317496 1464.60248 198.931224 1458.38795 185.417304 1467.34265 174.392613 1474.04047 167.696066 1480.81247 168.8054 1484.92895 167.696066 1489.04543 166.586732 1489.57337 158.926427 1484.92895 155.111373 1479.63656 149.365823 1471.98617 145.724548 1470.12876 139.86225 1467.34265 131.068803 1470.03359 122.715854 1477.48127 123.631494 1484.92895 124.547135 1491.45449 126.036906 1506.0824 151.338275 1520.71031 176.639644 1514.41284 181.590701 1530.84237 187.454099 1541.79539 191.36303 1549.82427 164.491211 1542.4282 151.338275 1528.43413 130.253959 1512.51223 117.837938 1506.0824 116.380613 1496.43766 114.194625 1496.04715 96.6143307 1496.43766 93.7057291 1496.82818 90.7971275 1497.22854 82.746092 1503.55882 86.7270651 1509.8891 90.7080382 1510.07616 101.915146 1520.45926 102.614662 1527.38133 103.081006 1530.84237 93.5819939 1530.84237 74.1176256 1530.71985 63.3818117 1527.93976 50.6194905 1522.50208 35.8306621 1517.06441 21.0418337 1522.04156 16.7963423 1537.43354 23.0941879 1545.1307 26.2689782 1548.92311 37.5910013 1549.14735 46.5263309 1549.48372 59.9293253 1549.17197 83.2195853 1547.2719 107.653158 1546.00518 123.942207 1550.18435 126.851358 1559.8094 116.380613 1575.3764 103.744227 1584.58851 93.8597107 1587.44572 86.7270651 1590.30294 79.5944195 1588.87433 72.5244665 1583.1599 65.5172059 1580.77306 63.0139058 1579.57964 59.5713182 1579.57964 55.1894431 1579.57964 48.6166305 1591.4705 56.0655431 1592.53603 50.0295349 1593.17665 46.3648218 1593.5552 44.2131358 1593.6682 43.5778797 1595.90109 31.0245077 1593.50313 25.1155616 1590.90342 22.0313697 1586.70784 17.053916 1598.44955 11.7564006 1603.07009 14.0776725 1607.69064 16.3989444 1616.62983 20.8897975 1616.27705 30.9716943 1615.92427 41.053591 1619.05824 57.7050462 1611.06417 71.355511 1605.73478 80.4558209 1599.93613 90.5251146 1593.6682 101.563392 1587.40027 112.60167 1616.85134 104.177779 1620.32331 101.563392 1623.79529 98.9490055 1625.53127 91.0437025 1625.53127 77.8474833 1627.28258 72.1303682 1630.12283 69.2718106 1634.05205 69.2718106 1637.98127 69.2718106 1641.2022 70.9001656 1643.71484 74.1568754 1646.22748 77.4135853 1642.7473 87.7210005 1645.54435 88.944054 1649.73993 90.7786342 1656.27531 82.7111007 1660.12139 87.1094738 1663.96747 91.5078469 1667.35248 97.4982793 1660.12139 104.551184 1652.8903 111.60409 1638.60368 116.602991 1631.22328 116.814165 1623.84287 117.02534 1572.77933 130.500694 1565.44446 142.646771 1558.10958 154.792847 1564.2401 179.238287 1560.65327 191.414929 1557.06643 203.59157 1558.85985 210.401954 1566.03351 211.846081 1573.94883 210.93429 1581.40143 203.540426 1588.39132 189.664488 1598.87616 168.850582 1588.73589 168.850582 1588.73589 162.374076 1588.42015 156.311422 1590.75121 152.689349 1596.28952 152.052526Z" opacity=".12" transform="translate(-285)"/></svg>