<svg xmlns="http://www.w3.org/2000/svg" width="262" height="650" viewBox="0 0 262 650"><defs><linearGradient id="a" x1="50%" x2="50%" y1="0%" y2="100%"><stop offset="0%" stop-color="#FF785D"/><stop offset="100%" stop-color="#BCFFDE"/><stop offset="100%" stop-color="#FF785D"/></linearGradient></defs><path fill="url(#a)" fill-rule="evenodd" d="M1596.28952,152.052526 C1601.82784,151.415702 1606.25593,154.159598 1609.57381,160.284215 C1612.43198,163.229112 1614.8286,161.398656 1616.76367,154.792847 C1618.69875,148.187039 1622.7824,145.640775 1629.01465,147.154056 C1636.00563,149.324234 1637.44914,154.579129 1633.34518,162.918743 C1627.18923,175.428163 1589.09207,222.967631 1572.52389,231.206744 C1571.19538,231.81882 1570.33477,233.881073 1569.94206,237.393502 C1569.35301,242.662146 1567.00335,267.160887 1572.52389,284.949881 C1576.20425,296.80921 1581.79507,296.424531 1589.29635,283.795844 C1592.37781,277.174221 1586.80834,267.662426 1592.53603,259.426613 C1598.26372,251.1908 1592.61245,251.1908 1605.53636,240.240236 C1614.15231,232.939861 1618.80266,236.004644 1619.48743,249.434585 C1620.50419,259.07383 1619.59627,266.932664 1616.76367,273.011086 C1613.93107,279.089508 1605.80245,291.855953 1592.37781,311.310423 C1588.28232,319.92734 1588.28232,328.178002 1592.37781,336.062408 C1598.52104,347.889016 1607.90243,366.804 1611.47613,368.728494 C1615.04984,370.652989 1624.20233,370.535028 1624.83815,364.019134 C1625.47396,357.503239 1624.15064,343.443623 1621.81904,340.379115 C1619.48743,337.314608 1618.28143,329.69582 1619.48743,327.006642 C1620.69343,324.317465 1630.56584,321.416287 1633.34518,325.788263 C1636.12452,330.16024 1643.03894,333.238771 1641.68772,344.064774 C1640.33651,354.890777 1639.8738,379.127199 1635.20566,387.571712 C1632.09358,393.201388 1633.22082,401.683297 1638.58739,413.017439 C1650.52818,435.983788 1658.44623,448.281964 1662.34154,449.911969 C1666.23685,451.541974 1671.08082,450.726972 1676.87346,447.466962 C1683.55761,435.766564 1686.12413,424.772006 1684.573,414.483288 C1683.02188,404.194571 1679.87802,402.638392 1677.78318,395.835432 L1671.75492,384.616916 C1667.50192,377.666849 1663.76413,373.797787 1660.54156,373.009732 C1655.70771,371.827648 1650.80083,358.319891 1657.73002,357.770507 C1664.6592,357.221123 1673.64022,355.028536 1678.39122,364.019134 C1681.55855,370.012866 1684.56617,371.282663 1687.41408,367.828527 C1690.30576,358.594033 1690.30576,351.461663 1687.41408,346.431415 C1684.52241,341.401168 1672.16841,327.90276 1650.35207,305.936191 C1641.78152,300.812455 1637.40026,296.033803 1637.20828,291.600234 C1636.92032,284.949881 1630.30946,274.066134 1642.99217,268.374316 C1651.44732,264.579771 1659.00302,271.993708 1665.65928,290.616127 C1670.97881,303.198619 1676.38942,308.897587 1681.89109,307.713029 C1687.39275,306.528471 1690.14359,304.200874 1690.14359,300.73024 C1690.55106,292.424585 1688.6942,286.164685 1684.573,281.95054 C1680.45181,277.736395 1673.66812,266.897743 1664.22192,249.434585 C1657.38244,240.20834 1654.24109,228.516741 1654.79787,214.359787 C1655.63305,193.124356 1660.50956,182.596967 1664.22192,181.572439 C1667.93427,180.547912 1674.76501,175.687594 1681.89109,185.417304 C1686.6418,191.903777 1686.01036,199.903668 1679.99676,209.416979 C1674.80521,220.84461 1674.27002,228.634152 1678.39122,232.785604 C1682.51241,236.937057 1687.15429,245.817393 1692.31685,259.426613 C1694.14582,263.035281 1693.30967,263.231057 1696.11617,262.133114 C1698.92268,261.03517 1699.71379,259.470333 1701.03289,254.452459 C1702.35199,249.434585 1701.17863,242.003603 1697.89318,235.44921 C1694.60773,228.894817 1697.91586,220.314748 1699.82442,218.09164 C1701.73299,215.868531 1705.36219,211.985721 1714.75096,217.668465 C1721.01014,221.456962 1725.88434,228.246858 1724.13973,240.240236 L1719.08683,262.133114 C1715.36216,291.949992 1712.01571,310.013403 1709.04747,316.323347 C1704.59511,325.788263 1703.75911,345.43246 1710.61445,349.367239 C1717.4698,353.302017 1717.55922,346.431415 1719.08683,346.431415 C1720.61443,346.431415 1732.43161,340.96397 1731.88358,349.367239 C1731.33554,357.770507 1727.0932,371.986854 1720.46675,382.329465 C1716.04912,389.224539 1714.14386,396.559285 1714.75096,404.333704 C1711.27953,429.682368 1703.07707,450.108296 1690.14359,465.611488 C1687.16659,468.999633 1686.40225,472.663844 1687.85054,476.604122 C1690.02299,482.514539 1696.4632,490.150649 1699.82442,489.284503 C1706.00266,488.908898 1709.48037,485.289231 1710.25758,478.425503 C1711.42338,468.129912 1715.3154,468.014426 1716.59442,468.129912 C1717.87344,468.245398 1731.38723,465.147069 1727.76348,484.030707 C1724.13973,502.914345 1721.86145,497.432052 1721.85653,510.00602 C1721.85161,522.579989 1718.41983,534.527858 1721.85161,537.728474 C1725.28338,540.929091 1723.55724,554.261144 1734.62293,550.800683 C1742.00005,548.49371 1746.89188,541.671502 1749.29842,530.33406 C1751.90896,496.624198 1751.62236,478.094993 1748.43863,474.746444 C1743.66302,469.723621 1749.23689,441.315674 1757.54354,427.899481 C1763.0813,418.955353 1763.0813,395.579028 1757.54354,357.770507 C1744.12655,339.809659 1737.49901,327.576099 1737.6609,321.069829 C1737.90375,311.310423 1732.90335,300.98266 1742.41272,292.96627 C1748.7523,287.62201 1753.7959,290.21 1757.54354,300.73024 C1760.06602,311.144343 1761.77439,317.924205 1762.66864,321.069829 C1764.01001,325.788263 1768.82745,339.46265 1772.42249,338.442247 C1776.01752,337.421845 1779.15149,330.293874 1779.15149,324.542663 C1779.15149,318.791452 1779.57646,292.020109 1785.65488,281.95054 C1789.70716,275.237494 1788.45056,263.064977 1781.8851,245.432989 C1767.39228,225.188265 1760.18197,213.182928 1760.25417,209.416979 C1760.36246,203.768056 1755.89287,184.522286 1752.16575,183.993524 C1748.43863,183.464763 1728.94651,175.653773 1727.76348,173.453762 C1726.58045,171.253751 1714.10202,165.075241 1716.59442,152.944244 C1719.08683,140.813247 1724.13973,147.154056 1729.86701,149.365823 C1737.43721,151.666747 1742.05557,152.18396 1743.72209,150.917462 C1746.22188,149.017714 1745.99545,134.575344 1742.41272,129.652334 C1738.82999,124.729324 1725.56806,94.9512161 1742.41272,83.490039 C1753.64249,75.8492543 1760.90011,77.2331636 1764.18557,87.6417667 C1766.72611,97.3838496 1767.10842,105.201988 1765.33251,111.096182 C1762.66864,119.937473 1756.32277,124.162617 1760.25417,133.23818 C1764.18557,142.313742 1769.63638,149.30148 1772.42249,154.792847 C1775.2086,160.284215 1780.19751,170.362032 1779.15149,182.513652 C1778.10547,194.665271 1783.9435,206.811941 1784.79919,207.60962 C1785.65488,208.4073 1791.03677,224.344391 1796.77061,222.67974 C1802.50446,221.015089 1811.06379,214.809358 1810.86771,207.60962 C1810.73699,202.809795 1810.37601,187.912836 1809.78477,162.918743 C1801.32799,138.848814 1795.52824,125.872637 1792.38552,123.990212 C1787.67145,121.166576 1784.30941,99.550865 1787.67145,94.3779097 C1791.03349,89.2049544 1792.40849,86.5306248 1798.86348,89.2049544 C1805.31846,91.879284 1810.86771,104.93417 1810.86771,109.329244 C1810.86771,113.724317 1815.26593,121.806699 1818.1669,118.904697 C1821.06787,116.002694 1828.74444,102.824073 1825.79671,96.0145137 C1822.84898,89.2049544 1816.79764,77.1226268 1819.18831,66.5597672 C1820.78209,59.5178607 1825.10456,52.5023511 1832.15571,45.5132384 C1836.86869,26.0004759 1837.67652,14.8266394 1834.5792,11.991729 C1829.93322,7.73936344 1833.49872,-1.40219147 1842.31402,0.182443703 C1851.12933,1.76707887 1861.31061,4.89262946 1859.43844,16.424748 C1858.19032,24.112827 1857.56626,32.8083853 1857.56626,42.511423 C1855.73456,53.7273294 1852.73459,61.7434441 1848.56636,66.5597672 C1842.31402,73.7842517 1845.02384,86.0785789 1846.7951,87.6417667 C1848.56636,89.2049544 1856.81066,96.0145137 1859.43844,96.0145137 C1862.06621,96.0145137 1866.60718,99.7909113 1863.02281,102.925536 C1860.63323,105.015285 1855.28552,109.329244 1850.74127,118.904697 C1849.58285,121.43989 1846.7951,123.083921 1846.7951,126.408823 C1846.7951,131.396175 1855.85407,134.741149 1859.43844,133.23818 C1863.02281,131.73521 1882.10718,134.277555 1884.24517,129.652334 C1886.38316,125.027113 1925.95398,96.2900307 1931.3449,79.6748711 C1936.73581,63.0597114 1930.80999,32.7685151 1932.85855,32.7685151 C1934.90711,32.7685151 1932.05865,25.8096487 1943.76016,27.8281819 C1951.56116,29.1738707 1954.36149,32.1591881 1952.16115,36.7841341 C1951.37411,45.6446726 1952.87409,49.5343567 1956.6611,48.4531862 C1962.34162,46.8314305 1966.59298,35.1013357 1969.64983,33.9349254 C1972.70668,32.7685151 1980.73028,27.8265321 1983.33262,33.9349254 C1985.93496,40.0433186 1989.36182,44.6809131 1984.6781,50.8693218 C1979.99438,57.0577304 1968.39132,79.1213624 1957.66118,86.0893026 C1946.93104,93.0572429 1913.54036,123.165311 1913.64866,126.408823 C1913.75695,129.652334 1906.05002,142.255587 1923.73149,147.154056 C1935.51914,150.419703 1943.97565,145.781077 1949.10103,133.23818 C1954.43205,129.441984 1958.23547,128.757866 1960.51128,131.185825 C1963.92501,134.827764 1967.33874,141.365106 1963.92501,148.078977 C1960.51128,154.792847 1952.71083,154.934112 1953.89878,158.926427 C1955.08674,162.918743 1957.09756,164.939957 1960.51128,164.491211 C1962.7871,164.192046 1965.22044,163.117475 1967.81129,161.267497 C1976.36817,159.558302 1980.08243,161.579309 1978.9541,167.330521 C1977.26159,175.957337 1976.97937,177.694579 1969.64983,180.104115 C1962.32029,182.513652 1951.03719,182.513652 1944.64702,182.513652 C1938.25685,182.513652 1907.11327,171.617532 1901.49182,161.267497 C1897.74419,154.367473 1887.17786,152.209257 1869.79283,154.792847 C1851.08858,156.159434 1841.38778,161.605156 1840.69043,171.130015 C1839.64441,185.417304 1840.51896,194.38398 1834.5792,212.144927 C1828.63943,229.905874 1824.15999,235.20174 1827.27427,242.318162 C1830.38854,249.434585 1836.71719,252.81173 1840.69043,246.525983 C1844.66368,240.240236 1853.14015,223.562384 1851.94071,218.961086 C1850.74127,214.359787 1854.5611,205.802262 1862.17696,207.60962 C1869.79283,209.416979 1872.57648,215.542695 1872.04649,220.704102 C1871.51651,225.865508 1867.6491,232.107536 1872.57648,231.206744 C1877.50386,230.305951 1881.84219,219.592135 1882.01119,215.868531 C1882.1802,212.144927 1891.83068,206.689031 1894.74477,209.416979 C1897.65887,212.144927 1906.74819,214.0422 1905.09096,220.704102 C1903.43373,227.366004 1895.53893,236.373925 1891.68136,239.346044 C1887.8238,242.318162 1836.55967,271.065969 1825.79671,289.389499 C1815.03375,307.713029 1809.32288,305.145111 1804.73597,325.788263 C1800.14906,346.431415 1803.81547,359.392263 1804.73597,360.265833 C1805.65647,361.139404 1811.92194,367.849975 1815.04442,366.460016 C1818.1669,365.070058 1828.75183,354.420583 1827.27427,346.431415 C1825.79671,338.442247 1827.28083,323.14858 1832.15571,323.027319 C1837.03058,322.906059 1848.56636,319.047996 1848.56636,323.027319 C1848.56636,327.006642 1852.37061,330.771491 1849.58285,336.062408 C1846.7951,341.353324 1846.39146,344.064774 1848.56636,344.064774 C1850.74127,344.064774 1857.56626,343.495592 1859.43844,346.431415 C1861.31061,349.367239 1865.59971,350.446209 1863.02281,356.464689 C1860.4459,362.483168 1859.82977,365.649963 1855.28552,367.828527 C1850.74127,370.007091 1802.57173,391.0132 1802.3494,394.463761 C1802.12707,397.914323 1794.01239,402.536244 1794.53828,414.483288 C1795.06416,426.430332 1792.77604,430.627429 1790.22374,436.80099 C1787.67145,442.97455 1781.8851,450.233681 1781.8851,457.922585 C1781.8851,465.611488 1781.97698,475.774271 1785.65488,479.351867 C1789.33278,482.929464 1790.23277,480.278232 1792.38552,479.351867 C1794.53828,478.425503 1800.85051,460.992867 1800.76437,454.974388 C1800.67822,448.955909 1806.43832,437.849439 1809.78477,437.794171 C1813.13122,437.738902 1816.27585,433.359502 1819.18831,435.080246 C1822.10076,436.80099 1828.75183,442.3468 1827.27427,451.687157 C1825.79671,461.027513 1820.51737,481.62447 1812.62667,491.228795 C1804.73597,500.833119 1774.04251,552.833793 1772.42249,558.713136 C1770.80247,564.592478 1767.66247,575.984917 1774.77378,584.067298 C1781.8851,592.14968 1789.22694,591.558226 1792.38552,592.14968 C1795.5441,592.741134 1828.38921,574.586709 1832.15571,558.713136 C1835.92221,542.839562 1824.99763,539.85012 1824.79909,534.263064 C1824.60055,528.676009 1827.36533,517.717197 1824.60055,513.861608 C1821.83577,510.00602 1817.14549,509.078831 1818.1669,503.339994 C1819.18831,497.601156 1823.9434,491.64537 1827.27427,495.548802 C1830.60513,499.452235 1836.58428,499.123924 1837.5458,505.716534 C1838.50732,512.309144 1838.30468,514.784673 1846.7951,517.449104 C1855.28552,520.113535 1862.17696,509.941678 1862.17696,507.829106 C1862.17696,505.716534 1863.59135,467.375952 1859.43844,462.649268 C1855.28552,457.922585 1847.2012,423.551427 1853.31982,414.483288 C1859.43844,405.41515 1858.59998,402.075125 1863.02281,404.333704 C1867.44564,406.592284 1869.79283,406.606307 1869.79283,409.740106 C1869.79283,412.873906 1872.57894,425.305167 1869.79283,430.192706 C1867.00672,435.080246 1874.80635,447.807646 1878.95681,446.36077 C1883.10726,444.913893 1891.18912,428.395247 1890.46798,423.095257 C1889.74684,417.795267 1896.69078,374.963922 1890.46798,364.019134 C1884.24517,353.074345 1893.31562,314.907817 1894.74477,311.310423 C1896.17393,307.713029 1896.17393,296.720395 1903.163,297.733374 C1910.15207,298.746353 1919.94038,295.228149 1918.82134,304.263292 C1917.7023,313.298435 1918.11168,321.762746 1913.64866,327.926407 C1909.18563,334.090069 1908.07971,341.3426 1912.59443,341.287332 C1917.10914,341.232063 1924.55354,334.200606 1924.60769,331.063506 C1924.66184,327.926407 1928.40044,323.650119 1932.85855,325.788263 C1937.31666,327.926407 1947.69238,335.37444 1944.64702,340.379115 C1941.60166,345.383791 1939.58263,352.703139 1929.20198,360.265833 C1922.28155,365.307629 1918.82134,374.805541 1918.82134,388.75957 C1918.19947,403.94765 1916.12383,412.846134 1912.59443,415.455022 C1907.30032,419.368353 1910.47613,435.151187 1915.95155,433.71256 C1921.42696,432.273932 1929.07564,420.623853 1930.21027,417.55357 C1931.3449,414.483288 1939.33762,388.162455 1937.57509,381.005499 C1935.81255,373.848542 1946.16888,366.17955 1950.03383,368.728494 C1953.89878,371.277439 1959.86726,373.782664 1957.66118,382.329465 C1955.4551,390.876266 1959.77948,412.747696 1953.89878,421.470201 C1948.01808,430.192706 1898.92476,499.677433 1890.46798,505.716534 C1882.01119,511.755636 1886.19118,527.193661 1890.46798,526.907421 C1894.74477,526.62118 1905.09096,521.485345 1910.00604,518.413413 C1914.92111,515.341481 1927.86718,516.197729 1927.86718,521.485345 C1927.86718,525.010423 1927.16573,530.424799 1925.76283,537.728474 C1921.7386,546.952791 1910.70995,550.800683 1906.51273,550.800683 C1902.31551,550.800683 1895.88569,555.961265 1887.22326,566.282429 C1852.5325,599.524297 1826.30345,618.756318 1808.53611,623.978492 C1790.76877,629.200667 1786.87553,650 1783.87131,650 C1781.86849,650 1763.86706,650 1729.86701,650 C1728.26194,648.519896 1717.84054,609.665909 1711.62631,596.77641 C1699.0015,570.590138 1684.90838,557.996065 1679.87802,555.774126 C1668.61838,550.800683 1667.03088,560.954664 1643.71484,560.954664 C1620.39879,560.954664 1626.28228,566.657323 1611.59367,565.715836 C1589.56074,564.303605 1573.3035,553.15424 1567.63611,544.542272 C1563.85785,538.80096 1563.85785,533.637078 1567.63611,529.050628 C1570.28111,526.911384 1574.26229,526.060636 1579.57964,526.498383 C1584.89698,526.936131 1589.56512,530.137848 1593.58403,536.103533 C1597.60295,542.069218 1608.43454,540.246187 1611.59367,534.003334 C1614.75279,527.760482 1613.17323,522.35683 1606.85498,517.792376 C1586.14893,509.780936 1575.80083,498.860344 1575.81067,485.030601 C1575.82052,471.200858 1589.61399,459.0719 1596.77378,474.178201 C1603.93358,489.284503 1650.35207,522.362487 1657.94026,530.990795 C1662.99905,536.743001 1667.84275,536.625865 1672.47136,530.639387 C1677.51196,524.667103 1676.8868,517.183599 1670.5959,508.188877 C1664.305,499.194154 1653.64405,485.546989 1638.61304,467.247381 C1623.11824,449.256837 1603.44043,438.730547 1579.57964,435.668514 C1555.71884,432.606481 1541.67014,420.324252 1537.43354,398.821828 C1537.10538,391.782672 1540.38483,388.229547 1547.2719,388.162455 C1554.15896,388.095363 1566.03351,392.605119 1575.81067,408.186106 C1578.81228,413.104717 1584.73673,415.066882 1593.58403,414.072601 C1602.43133,413.07832 1600.59902,395.236553 1591.73155,388.162455 C1575.0816,372.286957 1566.10468,358.909809 1564.80077,348.031013 C1562.84492,331.712817 1559.86191,314.779246 1547.2719,308.89935 C1538.87856,304.97942 1533.83694,304.263292 1530.84237,303.019455 C1515.31912,296.509335 1506.22461,284.134717 1503.55882,265.895602 C1500.89304,247.656487 1510.38825,246.670297 1517.07425,252.672436 C1523.76026,258.674575 1524.51099,270.134494 1530.84237,271.438938 C1537.17375,272.743382 1542.65025,269.882074 1547.2719,262.855016 C1551.30503,255.72457 1548.86623,244.700591 1539.95548,229.783078 C1531.04474,214.865565 1517.07425,193.317496 1506.0824,190.001394 C1494.15911,186.598401 1483.47847,187.703769 1474.04047,193.317496 C1464.60248,198.931224 1458.38795,185.417304 1467.34265,174.392613 C1474.04047,167.696066 1480.81247,168.8054 1484.92895,167.696066 C1489.04543,166.586732 1489.57337,158.926427 1484.92895,155.111373 C1479.63656,149.365823 1471.98617,145.724548 1470.12876,139.86225 C1467.34265,131.068803 1470.03359,122.715854 1477.48127,123.631494 C1484.92895,124.547135 1491.45449,126.036906 1506.0824,151.338275 C1520.71031,176.639644 1514.41284,181.590701 1530.84237,187.454099 C1541.79539,191.36303 1549.82427,164.491211 1542.4282,151.338275 C1528.43413,130.253959 1512.51223,117.837938 1506.0824,116.380613 C1496.43766,114.194625 1496.04715,96.6143307 1496.43766,93.7057291 C1496.82818,90.7971275 1497.22854,82.746092 1503.55882,86.7270651 C1509.8891,90.7080382 1510.07616,101.915146 1520.45926,102.614662 C1527.38133,103.081006 1530.84237,93.5819939 1530.84237,74.1176256 C1530.71985,63.3818117 1527.93976,50.6194905 1522.50208,35.8306621 C1517.06441,21.0418337 1522.04156,16.7963423 1537.43354,23.0941879 C1545.1307,26.2689782 1548.92311,37.5910013 1549.14735,46.5263309 C1549.48372,59.9293253 1549.17197,83.2195853 1547.2719,107.653158 C1546.00518,123.942207 1550.18435,126.851358 1559.8094,116.380613 C1575.3764,103.744227 1584.58851,93.8597107 1587.44572,86.7270651 C1590.30294,79.5944195 1588.87433,72.5244665 1583.1599,65.5172059 C1580.77306,63.0139058 1579.57964,59.5713182 1579.57964,55.1894431 C1579.57964,48.6166305 1591.4705,56.0655431 1592.53603,50.0295349 C1593.17665,46.3648218 1593.5552,44.2131358 1593.6682,43.5778797 C1595.90109,31.0245077 1593.50313,25.1155616 1590.90342,22.0313697 C1586.70784,17.053916 1598.44955,11.7564006 1603.07009,14.0776725 C1607.69064,16.3989444 1616.62983,20.8897975 1616.27705,30.9716943 C1615.92427,41.053591 1619.05824,57.7050462 1611.06417,71.355511 C1605.73478,80.4558209 1599.93613,90.5251146 1593.6682,101.563392 C1587.40027,112.60167 1616.85134,104.177779 1620.32331,101.563392 C1623.79529,98.9490055 1625.53127,91.0437025 1625.53127,77.8474833 C1627.28258,72.1303682 1630.12283,69.2718106 1634.05205,69.2718106 C1637.98127,69.2718106 1641.2022,70.9001656 1643.71484,74.1568754 C1646.22748,77.4135853 1642.7473,87.7210005 1645.54435,88.944054 C1649.73993,90.7786342 1656.27531,82.7111007 1660.12139,87.1094738 C1663.96747,91.5078469 1667.35248,97.4982793 1660.12139,104.551184 C1652.8903,111.60409 1638.60368,116.602991 1631.22328,116.814165 C1623.84287,117.02534 1572.77933,130.500694 1565.44446,142.646771 C1558.10958,154.792847 1564.2401,179.238287 1560.65327,191.414929 C1557.06643,203.59157 1558.85985,210.401954 1566.03351,211.846081 C1573.94883,210.93429 1581.40143,203.540426 1588.39132,189.664488 C1598.87616,168.850582 1588.73589,168.850582 1588.73589,162.374076 C1588.42015,156.311422 1590.75121,152.689349 1596.28952,152.052526 Z" opacity=".12" transform="translate(-1463)"/></svg>